<?xml version="1.0" encoding="UTF-8" standalone="no"?>
<!DOCTYPE svg PUBLIC "-//W3C//DTD SVG 1.1//EN"
 "http://www.w3.org/Graphics/SVG/1.1/DTD/svg11.dtd">
<!-- Generated by graphviz version 2.47.2 (20210527.0053)
 -->
<!-- Title: DataFlow Pages: 1 -->
<svg width="235pt" height="908pt"
 viewBox="0.00 0.00 235.20 908.00" xmlns="http://www.w3.org/2000/svg" xmlns:xlink="http://www.w3.org/1999/xlink">
<g id="graph0" class="graph" transform="scale(1 1) rotate(0) translate(4 904)">
<title>DataFlow</title>
<polygon fill="white" stroke="transparent" points="-4,4 -4,-904 231.2,-904 231.2,4 -4,4"/>
<!-- btcd -->
<g id="node1" class="node">
<title>btcd</title>
<ellipse fill="none" stroke="black" cx="89" cy="-810" rx="39.79" ry="18"/>
<text text-anchor="middle" x="89" y="-806.3" font-family="Times,serif" font-size="14.00">bitcoind</text>
</g>
<!-- hash -->
<g id="node14" class="node">
<title>hash</title>
<polygon fill="none" stroke="black" points="110,-756 62,-756 62,-720 116,-720 116,-750 110,-756"/>
<polyline fill="none" stroke="black" points="110,-756 110,-750 "/>
<polyline fill="none" stroke="black" points="116,-750 110,-750 "/>
<text text-anchor="middle" x="89" y="-734.3" font-family="Times,serif" font-size="14.00">hash</text>
</g>
<!-- btcd&#45;&gt;hash -->
<g id="edge3" class="edge">
<title>btcd&#45;&gt;hash</title>
<path fill="none" stroke="black" d="M89,-791.7C89,-783.98 89,-774.71 89,-766.11"/>
<polygon fill="black" stroke="black" points="92.5,-766.1 89,-756.1 85.5,-766.1 92.5,-766.1"/>
</g>
<!-- btcd2 -->
<g id="node2" class="node">
<title>btcd2</title>
<ellipse fill="none" stroke="black" cx="81" cy="-666" rx="39.79" ry="18"/>
<text text-anchor="middle" x="81" y="-662.3" font-family="Times,serif" font-size="14.00">bitcoind</text>
</g>
<!-- hex -->
<g id="node15" class="node">
<title>hex</title>
<polygon fill="none" stroke="black" points="102,-540 54,-540 54,-504 108,-504 108,-534 102,-540"/>
<polyline fill="none" stroke="black" points="102,-540 102,-534 "/>
<polyline fill="none" stroke="black" points="108,-534 102,-534 "/>
<text text-anchor="middle" x="81" y="-518.3" font-family="Times,serif" font-size="14.00">hex</text>
</g>
<!-- btcd2&#45;&gt;hex -->
<g id="edge5" class="edge">
<title>btcd2&#45;&gt;hex</title>
<path fill="none" stroke="black" d="M81,-647.87C81,-623.67 81,-579.21 81,-550.39"/>
<polygon fill="black" stroke="black" points="84.5,-550.19 81,-540.19 77.5,-550.19 84.5,-550.19"/>
</g>
<!-- btcbklocs -->
<g id="node3" class="node">
<title>btcbklocs</title>
<ellipse fill="none" stroke="black" cx="183" cy="-666" rx="44.39" ry="18"/>
<text text-anchor="middle" x="183" y="-662.3" font-family="Times,serif" font-size="14.00">btcbklocs</text>
</g>
<!-- locs -->
<g id="node11" class="node">
<title>locs</title>
<path fill="none" stroke="black" d="M186,-608.73C186,-610.53 173.9,-612 159,-612 144.1,-612 132,-610.53 132,-608.73 132,-608.73 132,-579.27 132,-579.27 132,-577.47 144.1,-576 159,-576 173.9,-576 186,-577.47 186,-579.27 186,-579.27 186,-608.73 186,-608.73"/>
<path fill="none" stroke="black" d="M186,-608.73C186,-606.92 173.9,-605.45 159,-605.45 144.1,-605.45 132,-606.92 132,-608.73"/>
<text text-anchor="middle" x="159" y="-590.3" font-family="Times,serif" font-size="14.00">locs</text>
</g>
<!-- btcbklocs&#45;&gt;locs -->
<g id="edge7" class="edge">
<title>btcbklocs&#45;&gt;locs</title>
<path fill="none" stroke="black" d="M177.19,-648.05C174.49,-640.18 171.21,-630.62 168.19,-621.79"/>
<polygon fill="black" stroke="black" points="171.48,-620.6 164.92,-612.28 164.86,-622.87 171.48,-620.6"/>
</g>
<!-- bce2 -->
<g id="node4" class="node">
<title>bce2</title>
<ellipse fill="none" stroke="black" cx="49" cy="-450" rx="27.1" ry="18"/>
<text text-anchor="middle" x="49" y="-446.3" font-family="Times,serif" font-size="14.00">bce2</text>
</g>
<!-- kv -->
<g id="node12" class="node">
<title>kv</title>
<path fill="none" stroke="black" d="M76,-392.73C76,-394.53 63.9,-396 49,-396 34.1,-396 22,-394.53 22,-392.73 22,-392.73 22,-363.27 22,-363.27 22,-361.47 34.1,-360 49,-360 63.9,-360 76,-361.47 76,-363.27 76,-363.27 76,-392.73 76,-392.73"/>
<path fill="none" stroke="black" d="M76,-392.73C76,-390.92 63.9,-389.45 49,-389.45 34.1,-389.45 22,-390.92 22,-392.73"/>
<text text-anchor="middle" x="49" y="-374.3" font-family="Times,serif" font-size="14.00">kv</text>
</g>
<!-- bce2&#45;&gt;kv -->
<g id="edge13" class="edge">
<title>bce2&#45;&gt;kv</title>
<path fill="none" stroke="black" d="M43.16,-432.41C42.32,-424.71 42.06,-415.34 42.39,-406.62"/>
<polygon fill="black" stroke="black" points="45.89,-406.66 43.07,-396.45 38.91,-406.19 45.89,-406.66"/>
</g>
<!-- txt -->
<g id="node16" class="node">
<title>txt</title>
<polygon fill="none" stroke="black" points="142,-396 94,-396 94,-360 148,-360 148,-390 142,-396"/>
<polyline fill="none" stroke="black" points="142,-396 142,-390 "/>
<polyline fill="none" stroke="black" points="148,-390 142,-390 "/>
<text text-anchor="middle" x="121" y="-374.3" font-family="Times,serif" font-size="14.00">txt</text>
</g>
<!-- bce2&#45;&gt;txt -->
<g id="edge15" class="edge">
<title>bce2&#45;&gt;txt</title>
<path fill="none" stroke="black" d="M63.92,-434.5C73.13,-425.54 85.19,-413.81 95.85,-403.45"/>
<polygon fill="black" stroke="black" points="98.57,-405.68 103.3,-396.2 93.69,-400.67 98.57,-405.68"/>
</g>
<!-- txt2sql -->
<g id="node5" class="node">
<title>txt2sql</title>
<ellipse fill="none" stroke="black" cx="164" cy="-306" rx="34.39" ry="18"/>
<text text-anchor="middle" x="164" y="-302.3" font-family="Times,serif" font-size="14.00">txt2sql</text>
</g>
<!-- sql -->
<g id="node18" class="node">
<title>sql</title>
<polygon fill="none" stroke="black" points="184,-180 136,-180 136,-144 190,-144 190,-174 184,-180"/>
<polyline fill="none" stroke="black" points="184,-180 184,-174 "/>
<polyline fill="none" stroke="black" points="190,-174 184,-174 "/>
<text text-anchor="middle" x="163" y="-158.3" font-family="Times,serif" font-size="14.00">sql</text>
</g>
<!-- txt2sql&#45;&gt;sql -->
<g id="edge17" class="edge">
<title>txt2sql&#45;&gt;sql</title>
<path fill="none" stroke="black" d="M163.88,-287.87C163.71,-263.67 163.4,-219.21 163.19,-190.39"/>
<polygon fill="black" stroke="black" points="166.69,-190.16 163.12,-180.19 159.69,-190.21 166.69,-190.16"/>
</g>
<!-- txt2tsv -->
<g id="node6" class="node">
<title>txt2tsv</title>
<ellipse fill="none" stroke="black" cx="77" cy="-306" rx="34.39" ry="18"/>
<text text-anchor="middle" x="77" y="-302.3" font-family="Times,serif" font-size="14.00">txt2tsv</text>
</g>
<!-- tsv -->
<g id="node17" class="node">
<title>tsv</title>
<polygon fill="none" stroke="black" points="102,-252 54,-252 54,-216 108,-216 108,-246 102,-252"/>
<polyline fill="none" stroke="black" points="102,-252 102,-246 "/>
<polyline fill="none" stroke="black" points="108,-246 102,-246 "/>
<text text-anchor="middle" x="81" y="-230.3" font-family="Times,serif" font-size="14.00">tsv</text>
</g>
<!-- txt2tsv&#45;&gt;tsv -->
<g id="edge20" class="edge">
<title>txt2tsv&#45;&gt;tsv</title>
<path fill="none" stroke="black" d="M77.99,-287.7C78.43,-279.98 78.96,-270.71 79.45,-262.11"/>
<polygon fill="black" stroke="black" points="82.95,-262.29 80.02,-252.1 75.96,-261.89 82.95,-262.29"/>
</g>
<!-- tsv2db -->
<g id="node7" class="node">
<title>tsv2db</title>
<ellipse fill="none" stroke="black" cx="83" cy="-162" rx="34.39" ry="18"/>
<text text-anchor="middle" x="83" y="-158.3" font-family="Times,serif" font-size="14.00">tsv2db</text>
</g>
<!-- psql -->
<g id="node8" class="node">
<title>psql</title>
<ellipse fill="none" stroke="black" cx="122" cy="-90" rx="27" ry="18"/>
<text text-anchor="middle" x="122" y="-86.3" font-family="Times,serif" font-size="14.00">psql</text>
</g>
<!-- tsv2db&#45;&gt;psql -->
<g id="edge22" class="edge">
<title>tsv2db&#45;&gt;psql</title>
<path fill="none" stroke="black" d="M92.24,-144.41C96.91,-136.04 102.66,-125.71 107.87,-116.37"/>
<polygon fill="black" stroke="black" points="111.01,-117.91 112.82,-107.47 104.9,-114.5 111.01,-117.91"/>
</g>
<!-- SQLDB -->
<g id="node13" class="node">
<title>SQLDB</title>
<path fill="none" stroke="black" d="M152.5,-32.73C152.5,-34.53 138.83,-36 122,-36 105.17,-36 91.5,-34.53 91.5,-32.73 91.5,-32.73 91.5,-3.27 91.5,-3.27 91.5,-1.47 105.17,0 122,0 138.83,0 152.5,-1.47 152.5,-3.27 152.5,-3.27 152.5,-32.73 152.5,-32.73"/>
<path fill="none" stroke="black" d="M152.5,-32.73C152.5,-30.92 138.83,-29.45 122,-29.45 105.17,-29.45 91.5,-30.92 91.5,-32.73"/>
<text text-anchor="middle" x="122" y="-14.3" font-family="Times,serif" font-size="14.00">SQLDB</text>
</g>
<!-- psql&#45;&gt;SQLDB -->
<g id="edge23" class="edge">
<title>psql&#45;&gt;SQLDB</title>
<path fill="none" stroke="black" d="M122,-71.7C122,-63.98 122,-54.71 122,-46.11"/>
<polygon fill="black" stroke="black" points="125.5,-46.1 122,-36.1 118.5,-46.1 125.5,-46.1"/>
</g>
<!-- dat -->
<g id="node9" class="node">
<title>dat</title>
<path fill="none" stroke="black" d="M72,-896.73C72,-898.53 59.9,-900 45,-900 30.1,-900 18,-898.53 18,-896.73 18,-896.73 18,-867.27 18,-867.27 18,-865.47 30.1,-864 45,-864 59.9,-864 72,-865.47 72,-867.27 72,-867.27 72,-896.73 72,-896.73"/>
<path fill="none" stroke="black" d="M72,-896.73C72,-894.92 59.9,-893.45 45,-893.45 30.1,-893.45 18,-894.92 18,-896.73"/>
<text text-anchor="middle" x="45" y="-878.3" font-family="Times,serif" font-size="14.00">dat</text>
</g>
<!-- dat&#45;&gt;btcd -->
<g id="edge1" class="edge">
<title>dat&#45;&gt;btcd</title>
<path fill="none" stroke="black" d="M55.88,-863.7C61.07,-855.44 67.38,-845.39 73.1,-836.3"/>
<polygon fill="black" stroke="black" points="76.19,-837.95 78.55,-827.62 70.27,-834.23 76.19,-837.95"/>
</g>
<!-- plus1 -->
<g id="node19" class="node">
<title>plus1</title>
<ellipse fill="none" stroke="black" cx="18" cy="-522" rx="18" ry="18"/>
<text text-anchor="middle" x="18" y="-518.3" font-family="Times,serif" font-size="14.00">+</text>
</g>
<!-- dat&#45;&gt;plus1 -->
<g id="edge10" class="edge">
<title>dat&#45;&gt;plus1</title>
<path fill="none" stroke="black" d="M38.52,-863.79C29.17,-837.36 13,-784.99 13,-739 13,-739 13,-739 13,-665 13,-624.97 15.01,-578.63 16.48,-550.07"/>
<polygon fill="black" stroke="black" points="19.98,-550.21 17.01,-540.04 12.99,-549.84 19.98,-550.21"/>
</g>
<!-- ldb -->
<g id="node10" class="node">
<title>ldb</title>
<path fill="none" stroke="black" d="M160,-896.73C160,-898.53 147.9,-900 133,-900 118.1,-900 106,-898.53 106,-896.73 106,-896.73 106,-867.27 106,-867.27 106,-865.47 118.1,-864 133,-864 147.9,-864 160,-865.47 160,-867.27 160,-867.27 160,-896.73 160,-896.73"/>
<path fill="none" stroke="black" d="M160,-896.73C160,-894.92 147.9,-893.45 133,-893.45 118.1,-893.45 106,-894.92 106,-896.73"/>
<text text-anchor="middle" x="133" y="-878.3" font-family="Times,serif" font-size="14.00">ldb</text>
</g>
<!-- ldb&#45;&gt;btcd -->
<g id="edge2" class="edge">
<title>ldb&#45;&gt;btcd</title>
<path fill="none" stroke="black" d="M122.12,-863.7C116.93,-855.44 110.62,-845.39 104.9,-836.3"/>
<polygon fill="black" stroke="black" points="107.73,-834.23 99.45,-827.62 101.81,-837.95 107.73,-834.23"/>
</g>
<!-- ldb&#45;&gt;btcbklocs -->
<g id="edge6" class="edge">
<title>ldb&#45;&gt;btcbklocs</title>
<path fill="none" stroke="black" d="M137.01,-863.85C145.7,-826.66 166.32,-738.37 176.74,-693.77"/>
<polygon fill="black" stroke="black" points="180.18,-694.47 179.04,-683.94 173.36,-692.88 180.18,-694.47"/>
</g>
<!-- locs&#45;&gt;plus1 -->
<g id="edge11" class="edge">
<title>locs&#45;&gt;plus1</title>
<path fill="none" stroke="black" d="M131.81,-581.52C108.41,-571.37 73.95,-555.76 45,-540 43.85,-539.37 42.68,-538.72 41.51,-538.05"/>
<polygon fill="black" stroke="black" points="43.02,-534.87 32.65,-532.7 39.4,-540.86 43.02,-534.87"/>
</g>
<!-- kv&#45;&gt;bce2 -->
<g id="edge14" class="edge">
<title>kv&#45;&gt;bce2</title>
<path fill="none" stroke="black" d="M54.93,-396.45C55.73,-404.27 55.94,-413.67 55.58,-422.34"/>
<polygon fill="black" stroke="black" points="52.08,-422.18 54.84,-432.41 59.06,-422.69 52.08,-422.18"/>
</g>
<!-- hash&#45;&gt;btcd2 -->
<g id="edge4" class="edge">
<title>hash&#45;&gt;btcd2</title>
<path fill="none" stroke="black" d="M87.02,-719.7C86.14,-711.98 85.08,-702.71 84.1,-694.11"/>
<polygon fill="black" stroke="black" points="87.57,-693.64 82.95,-684.1 80.61,-694.44 87.57,-693.64"/>
</g>
<!-- hash&#45;&gt;btcbklocs -->
<g id="edge8" class="edge">
<title>hash&#45;&gt;btcbklocs</title>
<path fill="none" stroke="black" d="M112.24,-719.7C125.02,-710.17 140.99,-698.28 154.53,-688.2"/>
<polygon fill="black" stroke="black" points="156.66,-690.98 162.59,-682.2 152.47,-685.37 156.66,-690.98"/>
</g>
<!-- hex&#45;&gt;bce2 -->
<g id="edge9" class="edge">
<title>hex&#45;&gt;bce2</title>
<path fill="none" stroke="black" d="M73.09,-503.7C69.39,-495.61 64.91,-485.81 60.83,-476.87"/>
<polygon fill="black" stroke="black" points="63.94,-475.26 56.6,-467.62 57.57,-478.17 63.94,-475.26"/>
</g>
<!-- txt&#45;&gt;txt2sql -->
<g id="edge16" class="edge">
<title>txt&#45;&gt;txt2sql</title>
<path fill="none" stroke="black" d="M131.63,-359.7C136.7,-351.44 142.87,-341.39 148.46,-332.3"/>
<polygon fill="black" stroke="black" points="151.54,-333.98 153.79,-323.62 145.57,-330.31 151.54,-333.98"/>
</g>
<!-- txt&#45;&gt;txt2tsv -->
<g id="edge19" class="edge">
<title>txt&#45;&gt;txt2tsv</title>
<path fill="none" stroke="black" d="M110.12,-359.7C104.93,-351.44 98.62,-341.39 92.9,-332.3"/>
<polygon fill="black" stroke="black" points="95.73,-330.23 87.45,-323.62 89.81,-333.95 95.73,-330.23"/>
</g>
<!-- tsv&#45;&gt;tsv2db -->
<g id="edge21" class="edge">
<title>tsv&#45;&gt;tsv2db</title>
<path fill="none" stroke="black" d="M81.49,-215.7C81.71,-207.98 81.98,-198.71 82.23,-190.11"/>
<polygon fill="black" stroke="black" points="85.72,-190.2 82.51,-180.1 78.73,-190 85.72,-190.2"/>
</g>
<!-- sql&#45;&gt;psql -->
<g id="edge18" class="edge">
<title>sql&#45;&gt;psql</title>
<path fill="none" stroke="black" d="M152.87,-143.7C147.96,-135.32 141.97,-125.1 136.58,-115.9"/>
<polygon fill="black" stroke="black" points="139.53,-114 131.46,-107.14 133.49,-117.54 139.53,-114"/>
</g>
<!-- plus1&#45;&gt;bce2 -->
<g id="edge12" class="edge">
<title>plus1&#45;&gt;bce2</title>
<path fill="none" stroke="black" d="M25.03,-505.12C28.69,-496.85 33.26,-486.54 37.42,-477.14"/>
<polygon fill="black" stroke="black" points="40.71,-478.36 41.56,-467.8 34.31,-475.52 40.71,-478.36"/>
</g>
</g>
</svg>
