<?xml version="1.0" encoding="UTF-8" standalone="no"?>
<!DOCTYPE svg PUBLIC "-//W3C//DTD SVG 1.1//EN"
 "http://www.w3.org/Graphics/SVG/1.1/DTD/svg11.dtd">
<!-- Generated by graphviz version 2.47.2 (20210527.0053)
 -->
<!-- Title: bce2 Pages: 1 -->
<svg width="873pt" height="1234pt"
 viewBox="0.00 0.00 872.97 1234.00" xmlns="http://www.w3.org/2000/svg" xmlns:xlink="http://www.w3.org/1999/xlink">
<g id="graph0" class="graph" transform="scale(1 1) rotate(0) translate(4 1230)">
<title>bce2</title>
<polygon fill="white" stroke="transparent" points="-4,4 -4,-1230 868.97,-1230 868.97,4 -4,4"/>
<g id="clust7" class="cluster">
<title>cluster_c_bk</title>
<polygon fill="none" stroke="black" points="741.53,-176 741.53,-498 844.62,-498 844.62,-176 741.53,-176"/>
</g>
<g id="clust8" class="cluster">
<title>cluster_c_cfg</title>
<polygon fill="none" stroke="black" points="742.83,-890 742.83,-942 843.32,-942 843.32,-890 742.83,-890"/>
</g>
<g id="clust9" class="cluster">
<title>cluster_c_crypt</title>
<polygon fill="none" stroke="black" points="730.48,-8 730.48,-168 855.67,-168 855.67,-8 730.48,-8"/>
</g>
<g id="clust10" class="cluster">
<title>cluster_c_kv</title>
<polygon fill="none" stroke="black" points="547.59,-1004 547.59,-1218 709.18,-1218 709.18,-1004 547.59,-1004"/>
</g>
<g id="clust11" class="cluster">
<title>cluster_c_load</title>
<polygon fill="none" stroke="black" points="729.18,-776 729.18,-882 856.97,-882 856.97,-776 729.18,-776"/>
</g>
<g id="clust12" class="cluster">
<title>cluster_c_out</title>
<polygon fill="none" stroke="black" points="738.93,-506 738.93,-666 847.22,-666 847.22,-506 738.93,-506"/>
</g>
<g id="clust1" class="cluster">
<title>cluster_h_bk</title>
<polygon fill="none" stroke="black" points="442.59,-285 442.59,-391 663.38,-391 663.38,-285 442.59,-285"/>
</g>
<g id="clust2" class="cluster">
<title>cluster_h_cfg</title>
<polygon fill="none" stroke="black" points="576.38,-890 576.38,-996 680.38,-996 680.38,-890 576.38,-890"/>
</g>
<g id="clust3" class="cluster">
<title>cluster_h_crypt</title>
<polygon fill="none" stroke="black" points="584.88,-122 584.88,-228 671.88,-228 671.88,-122 584.88,-122"/>
</g>
<g id="clust4" class="cluster">
<title>cluster_h_kv</title>
<polygon fill="none" stroke="black" points="139.79,-421 139.79,-581 422.59,-581 422.59,-421 139.79,-421"/>
</g>
<g id="clust5" class="cluster">
<title>cluster_h_load</title>
<polygon fill="none" stroke="black" points="583.88,-722 583.88,-882 672.88,-882 672.88,-722 583.88,-722"/>
</g>
<g id="clust6" class="cluster">
<title>cluster_h_out</title>
<polygon fill="none" stroke="black" points="593.38,-576 593.38,-628 663.38,-628 663.38,-576 593.38,-576"/>
</g>
<!-- bce_h -->
<g id="node1" class="node">
<title>bce_h</title>
<polygon fill="none" stroke="black" points="512.09,-674 458.09,-674 458.09,-638 512.09,-638 512.09,-674"/>
<text text-anchor="middle" x="485.09" y="-652.3" font-family="Times,serif" font-size="14.00">bce_h</text>
</g>
<!-- misc_h -->
<g id="node3" class="node">
<title>misc_h</title>
<polygon fill="none" stroke="black" points="656.38,-674 600.38,-674 600.38,-638 656.38,-638 656.38,-674"/>
<text text-anchor="middle" x="628.38" y="-652.3" font-family="Times,serif" font-size="14.00">misc_h</text>
</g>
<!-- bce_h&#45;&gt;misc_h -->
<g id="edge2" class="edge">
<title>bce_h&#45;&gt;misc_h</title>
<path fill="none" stroke="black" d="M512.33,-656C534.26,-656 565.79,-656 590.29,-656"/>
<polygon fill="black" stroke="black" points="590.32,-659.5 600.32,-656 590.32,-652.5 590.32,-659.5"/>
</g>
<!-- bk_cpp -->
<g id="node26" class="node">
<title>bk_cpp</title>
<ellipse fill="none" stroke="black" cx="793.07" cy="-364" rx="36.29" ry="18"/>
<text text-anchor="middle" x="793.07" y="-360.3" font-family="Times,serif" font-size="14.00">bk_cpp</text>
</g>
<!-- bce_h&#45;&gt;bk_cpp -->
<g id="edge30" class="edge">
<title>bce_h&#45;&gt;bk_cpp</title>
<path fill="none" stroke="black" d="M489.95,-637.72C496.7,-610.39 513.33,-559.18 547.59,-532 605.39,-486.15 658.04,-547.18 709.18,-494 741.5,-460.39 699.91,-427.3 729.18,-391 734.64,-384.22 742.14,-379.11 750.05,-375.26"/>
<polygon fill="black" stroke="black" points="751.58,-378.42 759.43,-371.31 748.86,-371.97 751.58,-378.42"/>
</g>
<!-- tx_cpp -->
<g id="node27" class="node">
<title>tx_cpp</title>
<ellipse fill="none" stroke="black" cx="793.07" cy="-310" rx="34.39" ry="18"/>
<text text-anchor="middle" x="793.07" y="-306.3" font-family="Times,serif" font-size="14.00">tx_cpp</text>
</g>
<!-- bce_h&#45;&gt;tx_cpp -->
<g id="edge33" class="edge">
<title>bce_h&#45;&gt;tx_cpp</title>
<path fill="none" stroke="black" d="M491.89,-637.84C504.88,-597.61 536.1,-503.77 547.59,-494 603.43,-446.52 658.43,-513.9 709.18,-461 747.82,-420.72 694.84,-381.01 729.18,-337 734.92,-329.64 743.06,-324.25 751.59,-320.32"/>
<polygon fill="black" stroke="black" points="752.91,-323.56 760.9,-316.61 750.32,-317.06 752.91,-323.56"/>
</g>
<!-- vout_cpp -->
<g id="node29" class="node">
<title>vout_cpp</title>
<ellipse fill="none" stroke="black" cx="793.07" cy="-418" rx="43.59" ry="18"/>
<text text-anchor="middle" x="793.07" y="-414.3" font-family="Times,serif" font-size="14.00">vout_cpp</text>
</g>
<!-- bce_h&#45;&gt;vout_cpp -->
<g id="edge38" class="edge">
<title>bce_h&#45;&gt;vout_cpp</title>
<path fill="none" stroke="black" d="M494.67,-637.65C504.66,-618.34 522.97,-588.51 547.59,-572 609.04,-530.79 657.3,-584.75 709.18,-532 737,-503.71 703.75,-475.46 729.18,-445 733.73,-439.55 739.59,-435.17 745.89,-431.66"/>
<polygon fill="black" stroke="black" points="747.85,-434.6 755.35,-427.11 744.82,-428.29 747.85,-434.6"/>
</g>
<!-- bdb_cpp -->
<g id="node35" class="node">
<title>bdb_cpp</title>
<ellipse fill="none" stroke="black" cx="628.38" cy="-1192" rx="40.89" ry="18"/>
<text text-anchor="middle" x="628.38" y="-1188.3" font-family="Times,serif" font-size="14.00">bdb_cpp</text>
</g>
<!-- bce_h&#45;&gt;bdb_cpp -->
<g id="edge49" class="edge">
<title>bce_h&#45;&gt;bdb_cpp</title>
<path fill="none" stroke="black" d="M485.78,-674.24C484.79,-755.95 484.72,-1087.63 547.59,-1165 555.37,-1174.58 566.69,-1180.77 578.37,-1184.78"/>
<polygon fill="black" stroke="black" points="577.62,-1188.2 588.2,-1187.65 579.58,-1181.49 577.62,-1188.2"/>
</g>
<!-- kv_common_cpp -->
<g id="node36" class="node">
<title>kv_common_cpp</title>
<ellipse fill="none" stroke="black" cx="628.38" cy="-1138" rx="72.59" ry="18"/>
<text text-anchor="middle" x="628.38" y="-1134.3" font-family="Times,serif" font-size="14.00">kv_common_cpp</text>
</g>
<!-- bce_h&#45;&gt;kv_common_cpp -->
<g id="edge48" class="edge">
<title>bce_h&#45;&gt;kv_common_cpp</title>
<path fill="none" stroke="black" d="M486.08,-674.08C486.38,-750.04 491.24,-1042.65 547.59,-1111 551.25,-1115.44 555.68,-1119.16 560.54,-1122.26"/>
<polygon fill="black" stroke="black" points="559.24,-1125.54 569.7,-1127.22 562.57,-1119.38 559.24,-1125.54"/>
</g>
<!-- kc_cpp -->
<g id="node37" class="node">
<title>kc_cpp</title>
<ellipse fill="none" stroke="black" cx="628.38" cy="-1084" rx="36.29" ry="18"/>
<text text-anchor="middle" x="628.38" y="-1080.3" font-family="Times,serif" font-size="14.00">kc_cpp</text>
</g>
<!-- bce_h&#45;&gt;kc_cpp -->
<g id="edge50" class="edge">
<title>bce_h&#45;&gt;kc_cpp</title>
<path fill="none" stroke="black" d="M486.44,-674.04C488.16,-744.16 497.78,-997.66 547.59,-1057 556.43,-1067.53 569.54,-1073.97 582.6,-1077.9"/>
<polygon fill="black" stroke="black" points="581.94,-1081.34 592.49,-1080.44 583.68,-1074.57 581.94,-1081.34"/>
</g>
<!-- tk_cpp -->
<g id="node38" class="node">
<title>tk_cpp</title>
<ellipse fill="none" stroke="black" cx="628.38" cy="-1030" rx="34.39" ry="18"/>
<text text-anchor="middle" x="628.38" y="-1026.3" font-family="Times,serif" font-size="14.00">tk_cpp</text>
</g>
<!-- bce_h&#45;&gt;tk_cpp -->
<g id="edge51" class="edge">
<title>bce_h&#45;&gt;tk_cpp</title>
<path fill="none" stroke="black" d="M487.03,-674.44C490.64,-738.39 505.58,-949.52 547.59,-1000 557.04,-1011.35 571.24,-1018.41 585.06,-1022.8"/>
<polygon fill="black" stroke="black" points="584.41,-1026.25 594.98,-1025.55 586.28,-1019.51 584.41,-1026.25"/>
</g>
<!-- common_h -->
<g id="node2" class="node">
<title>common_h</title>
<polygon fill="none" stroke="black" points="79,-390 0,-390 0,-354 79,-354 79,-390"/>
<text text-anchor="middle" x="39.5" y="-368.3" font-family="Times,serif" font-size="14.00">common_h</text>
</g>
<!-- uniptr_h -->
<g id="node4" class="node">
<title>uniptr_h</title>
<polygon fill="none" stroke="black" points="516.09,-536 454.09,-536 454.09,-500 516.09,-500 516.09,-536"/>
<text text-anchor="middle" x="485.09" y="-514.3" font-family="Times,serif" font-size="14.00">uniptr_h</text>
</g>
<!-- common_h&#45;&gt;uniptr_h -->
<g id="edge3" class="edge">
<title>common_h&#45;&gt;uniptr_h</title>
<path fill="none" stroke="black" d="M40.42,-390C41.34,-432.54 50.3,-539.09 115,-585 226.49,-664.12 297.44,-640 422.59,-585 441.44,-576.72 457.04,-559.49 467.82,-544.57"/>
<polygon fill="black" stroke="black" points="470.83,-546.37 473.59,-536.15 465.05,-542.42 470.83,-546.37"/>
</g>
<!-- addr_h -->
<g id="node5" class="node">
<title>addr_h</title>
<polygon fill="none" stroke="black" points="512.09,-383 458.09,-383 458.09,-347 512.09,-347 512.09,-383"/>
<text text-anchor="middle" x="485.09" y="-361.3" font-family="Times,serif" font-size="14.00">addr_h</text>
</g>
<!-- common_h&#45;&gt;addr_h -->
<g id="edge4" class="edge">
<title>common_h&#45;&gt;addr_h</title>
<path fill="none" stroke="black" d="M79.15,-369.59C90.68,-368.96 103.35,-368.36 115,-368 236.65,-364.24 380.95,-364.41 447.33,-364.75"/>
<polygon fill="black" stroke="black" points="447.66,-368.25 457.68,-364.8 447.7,-361.25 447.66,-368.25"/>
</g>
<!-- opcode_h -->
<g id="node7" class="node">
<title>opcode_h</title>
<polygon fill="none" stroke="black" points="519.59,-329 450.59,-329 450.59,-293 519.59,-293 519.59,-329"/>
<text text-anchor="middle" x="485.09" y="-307.3" font-family="Times,serif" font-size="14.00">opcode_h</text>
</g>
<!-- common_h&#45;&gt;opcode_h -->
<g id="edge7" class="edge">
<title>common_h&#45;&gt;opcode_h</title>
<path fill="none" stroke="black" d="M79.15,-366.2C90.68,-364.5 103.35,-362.65 115,-361 232.53,-344.36 371.3,-325.88 440.4,-316.75"/>
<polygon fill="black" stroke="black" points="441.03,-320.19 450.48,-315.42 440.11,-313.25 441.03,-320.19"/>
</g>
<!-- encode_h -->
<g id="node10" class="node">
<title>encode_h</title>
<polygon fill="none" stroke="black" points="662.38,-166 594.38,-166 594.38,-130 662.38,-130 662.38,-166"/>
<text text-anchor="middle" x="628.38" y="-144.3" font-family="Times,serif" font-size="14.00">encode_h</text>
</g>
<!-- common_h&#45;&gt;encode_h -->
<g id="edge8" class="edge">
<title>common_h&#45;&gt;encode_h</title>
<path fill="none" stroke="black" d="M45.86,-353.69C55.17,-325.11 77.06,-270.09 115,-240 180.87,-187.76 212.52,-187 296.59,-187 296.59,-187 296.59,-187 388.59,-187 457.66,-187 536.52,-170.91 584.1,-159.4"/>
<polygon fill="black" stroke="black" points="585.18,-162.74 594.05,-156.95 583.5,-155.94 585.18,-162.74"/>
</g>
<!-- uintxxx_h -->
<g id="node11" class="node">
<title>uintxxx_h</title>
<polygon fill="none" stroke="black" points="663.88,-220 592.88,-220 592.88,-184 663.88,-184 663.88,-220"/>
<text text-anchor="middle" x="628.38" y="-198.3" font-family="Times,serif" font-size="14.00">uintxxx_h</text>
</g>
<!-- common_h&#45;&gt;uintxxx_h -->
<g id="edge9" class="edge">
<title>common_h&#45;&gt;uintxxx_h</title>
<path fill="none" stroke="black" d="M58.56,-353.83C98.01,-316.15 196.43,-233 296.59,-233 296.59,-233 296.59,-233 388.59,-233 456.75,-233 534.94,-220.43 582.75,-211.29"/>
<polygon fill="black" stroke="black" points="583.62,-214.69 592.76,-209.35 582.28,-207.82 583.62,-214.69"/>
</g>
<!-- base_h -->
<g id="node12" class="node">
<title>base_h</title>
<polygon fill="none" stroke="black" points="201.79,-493 147.79,-493 147.79,-457 201.79,-457 201.79,-493"/>
<text text-anchor="middle" x="174.79" y="-471.3" font-family="Times,serif" font-size="14.00">base_h</text>
</g>
<!-- common_h&#45;&gt;base_h -->
<g id="edge10" class="edge">
<title>common_h&#45;&gt;base_h</title>
<path fill="none" stroke="black" d="M64.02,-390.18C85.68,-406.92 118,-431.88 141.96,-450.4"/>
<polygon fill="black" stroke="black" points="140,-453.31 150.06,-456.66 144.29,-447.77 140,-453.31"/>
</g>
<!-- bkidx_h -->
<g id="node17" class="node">
<title>bkidx_h</title>
<polygon fill="none" stroke="black" points="658.88,-766 597.88,-766 597.88,-730 658.88,-730 658.88,-766"/>
<text text-anchor="middle" x="628.38" y="-744.3" font-family="Times,serif" font-size="14.00">bkidx_h</text>
</g>
<!-- common_h&#45;&gt;bkidx_h -->
<g id="edge17" class="edge">
<title>common_h&#45;&gt;bkidx_h</title>
<path fill="none" stroke="black" d="M41.33,-390.22C44.25,-434.74 57.28,-550.71 115,-623 172.76,-695.34 204.02,-725 296.59,-725 296.59,-725 296.59,-725 388.59,-725 458.87,-725 540.25,-734.99 587.56,-741.8"/>
<polygon fill="black" stroke="black" points="587.29,-745.3 597.69,-743.29 588.3,-738.38 587.29,-745.3"/>
</g>
<!-- common_cpp -->
<g id="node21" class="node">
<title>common_cpp</title>
<ellipse fill="none" stroke="black" cx="174.79" cy="-395" rx="59.59" ry="18"/>
<text text-anchor="middle" x="174.79" y="-391.3" font-family="Times,serif" font-size="14.00">common_cpp</text>
</g>
<!-- common_h&#45;&gt;common_cpp -->
<g id="edge18" class="edge">
<title>common_h&#45;&gt;common_cpp</title>
<path fill="none" stroke="black" d="M79.05,-378.65C89.52,-380.46 101.12,-382.46 112.51,-384.42"/>
<polygon fill="black" stroke="black" points="111.98,-387.88 122.43,-386.14 113.17,-380.99 111.98,-387.88"/>
</g>
<!-- misc_cpp -->
<g id="node23" class="node">
<title>misc_cpp</title>
<ellipse fill="none" stroke="black" cx="793.07" cy="-748" rx="44.69" ry="18"/>
<text text-anchor="middle" x="793.07" y="-744.3" font-family="Times,serif" font-size="14.00">misc_cpp</text>
</g>
<!-- misc_h&#45;&gt;misc_cpp -->
<g id="edge21" class="edge">
<title>misc_h&#45;&gt;misc_cpp</title>
<path fill="none" stroke="black" d="M656.46,-662.17C673.09,-667.02 694.04,-675.16 709.18,-688 722.25,-699.1 716.23,-709.75 729.18,-721 734.48,-725.61 740.69,-729.53 747.1,-732.83"/>
<polygon fill="black" stroke="black" points="746.02,-736.19 756.56,-737.24 748.97,-729.85 746.02,-736.19"/>
</g>
<!-- main_cpp -->
<g id="node24" class="node">
<title>main_cpp</title>
<ellipse fill="none" stroke="black" cx="793.07" cy="-694" rx="46.29" ry="18"/>
<text text-anchor="middle" x="793.07" y="-690.3" font-family="Times,serif" font-size="14.00">main_cpp</text>
</g>
<!-- misc_h&#45;&gt;main_cpp -->
<g id="edge22" class="edge">
<title>misc_h&#45;&gt;main_cpp</title>
<path fill="none" stroke="black" d="M656.61,-662.36C680.24,-667.88 715.02,-676 743.41,-682.63"/>
<polygon fill="black" stroke="black" points="742.63,-686.05 753.16,-684.91 744.22,-679.23 742.63,-686.05"/>
</g>
<!-- vin_cpp -->
<g id="node28" class="node">
<title>vin_cpp</title>
<ellipse fill="none" stroke="black" cx="793.07" cy="-472" rx="38.99" ry="18"/>
<text text-anchor="middle" x="793.07" y="-468.3" font-family="Times,serif" font-size="14.00">vin_cpp</text>
</g>
<!-- misc_h&#45;&gt;vin_cpp -->
<g id="edge36" class="edge">
<title>misc_h&#45;&gt;vin_cpp</title>
<path fill="none" stroke="black" d="M656.65,-654.96C674.24,-652.78 696.17,-646.96 709.18,-632 747.53,-587.88 694.3,-548.92 729.18,-502 734.42,-494.95 741.74,-489.49 749.55,-485.28"/>
<polygon fill="black" stroke="black" points="751.29,-488.33 758.84,-480.89 748.3,-482 751.29,-488.33"/>
</g>
<!-- opts_cpp -->
<g id="node31" class="node">
<title>opts_cpp</title>
<ellipse fill="none" stroke="black" cx="793.07" cy="-916" rx="42.49" ry="18"/>
<text text-anchor="middle" x="793.07" y="-912.3" font-family="Times,serif" font-size="14.00">opts_cpp</text>
</g>
<!-- misc_h&#45;&gt;opts_cpp -->
<g id="edge41" class="edge">
<title>misc_h&#45;&gt;opts_cpp</title>
<path fill="none" stroke="black" d="M656.63,-669.71C674.69,-680.32 697.18,-696.77 709.18,-718 746.17,-783.46 685.36,-824.89 729.18,-886 733.94,-892.64 740.56,-897.86 747.73,-901.95"/>
<polygon fill="black" stroke="black" points="746.49,-905.25 757.01,-906.55 749.6,-898.97 746.49,-905.25"/>
</g>
<!-- bkidx_cpp -->
<g id="node39" class="node">
<title>bkidx_cpp</title>
<ellipse fill="none" stroke="black" cx="793.07" cy="-856" rx="48.19" ry="18"/>
<text text-anchor="middle" x="793.07" y="-852.3" font-family="Times,serif" font-size="14.00">bkidx_cpp</text>
</g>
<!-- misc_h&#45;&gt;bkidx_cpp -->
<g id="edge52" class="edge">
<title>misc_h&#45;&gt;bkidx_cpp</title>
<path fill="none" stroke="black" d="M656.62,-670.17C674.43,-680.89 696.64,-697.29 709.18,-718 735.13,-760.89 697.98,-789.76 729.18,-829 733.16,-834.01 738.24,-838.1 743.79,-841.44"/>
<polygon fill="black" stroke="black" points="742.32,-844.62 752.81,-846.11 745.53,-838.4 742.32,-844.62"/>
</g>
<!-- datfarm_cpp -->
<g id="node40" class="node">
<title>datfarm_cpp</title>
<ellipse fill="none" stroke="black" cx="793.07" cy="-802" rx="55.79" ry="18"/>
<text text-anchor="middle" x="793.07" y="-798.3" font-family="Times,serif" font-size="14.00">datfarm_cpp</text>
</g>
<!-- misc_h&#45;&gt;datfarm_cpp -->
<g id="edge56" class="edge">
<title>misc_h&#45;&gt;datfarm_cpp</title>
<path fill="none" stroke="black" d="M656.74,-671.58C673.91,-682.59 695.34,-698.78 709.18,-718 724.86,-739.79 710.85,-755.38 729.18,-775 732.78,-778.86 737.04,-782.2 741.6,-785.07"/>
<polygon fill="black" stroke="black" points="740.23,-788.31 750.68,-790.05 743.6,-782.17 740.23,-788.31"/>
</g>
<!-- log_cpp -->
<g id="node41" class="node">
<title>log_cpp</title>
<ellipse fill="none" stroke="black" cx="793.07" cy="-640" rx="38.99" ry="18"/>
<text text-anchor="middle" x="793.07" y="-636.3" font-family="Times,serif" font-size="14.00">log_cpp</text>
</g>
<!-- misc_h&#45;&gt;log_cpp -->
<g id="edge62" class="edge">
<title>misc_h&#45;&gt;log_cpp</title>
<path fill="none" stroke="black" d="M656.61,-653.32C680.54,-650.97 715.9,-647.49 744.49,-644.68"/>
<polygon fill="black" stroke="black" points="745.08,-648.14 754.69,-643.68 744.39,-641.17 745.08,-648.14"/>
</g>
<!-- out_cpp -->
<g id="node42" class="node">
<title>out_cpp</title>
<ellipse fill="none" stroke="black" cx="793.07" cy="-586" rx="38.99" ry="18"/>
<text text-anchor="middle" x="793.07" y="-582.3" font-family="Times,serif" font-size="14.00">out_cpp</text>
</g>
<!-- misc_h&#45;&gt;out_cpp -->
<g id="edge58" class="edge">
<title>misc_h&#45;&gt;out_cpp</title>
<path fill="none" stroke="black" d="M656.52,-651.14C672.59,-647.48 692.91,-641.44 709.18,-632 719.78,-625.84 718.94,-619.75 729.18,-613 736.16,-608.4 744.06,-604.29 751.84,-600.74"/>
<polygon fill="black" stroke="black" points="753.41,-603.88 761.2,-596.71 750.63,-597.45 753.41,-603.88"/>
</g>
<!-- show_cpp -->
<g id="node43" class="node">
<title>show_cpp</title>
<ellipse fill="none" stroke="black" cx="793.07" cy="-532" rx="46.29" ry="18"/>
<text text-anchor="middle" x="793.07" y="-528.3" font-family="Times,serif" font-size="14.00">show_cpp</text>
</g>
<!-- misc_h&#45;&gt;show_cpp -->
<g id="edge60" class="edge">
<title>misc_h&#45;&gt;show_cpp</title>
<path fill="none" stroke="black" d="M656.49,-654.41C673.78,-651.98 695.44,-646.08 709.18,-632 732.67,-607.92 707.09,-584.37 729.18,-559 733.63,-553.88 739.23,-549.7 745.24,-546.3"/>
<polygon fill="black" stroke="black" points="746.83,-549.42 754.25,-541.85 743.74,-543.14 746.83,-549.42"/>
</g>
<!-- bk_h -->
<g id="node6" class="node">
<title>bk_h</title>
<polygon fill="none" stroke="black" points="655.38,-383 601.38,-383 601.38,-347 655.38,-347 655.38,-383"/>
<text text-anchor="middle" x="628.38" y="-361.3" font-family="Times,serif" font-size="14.00">bk_h</text>
</g>
<!-- uniptr_h&#45;&gt;bk_h -->
<g id="edge6" class="edge">
<title>uniptr_h&#45;&gt;bk_h</title>
<path fill="none" stroke="black" d="M492.39,-499.79C501.41,-475.94 520.04,-433.97 547.59,-407 560.07,-394.78 576.83,-385.24 591.76,-378.36"/>
<polygon fill="black" stroke="black" points="593.48,-381.42 601.25,-374.22 590.69,-375.01 593.48,-381.42"/>
</g>
<!-- uniptr_cpp -->
<g id="node22" class="node">
<title>uniptr_cpp</title>
<ellipse fill="none" stroke="black" cx="628.38" cy="-434" rx="48.99" ry="18"/>
<text text-anchor="middle" x="628.38" y="-430.3" font-family="Times,serif" font-size="14.00">uniptr_cpp</text>
</g>
<!-- uniptr_h&#45;&gt;uniptr_cpp -->
<g id="edge19" class="edge">
<title>uniptr_h&#45;&gt;uniptr_cpp</title>
<path fill="none" stroke="black" d="M504.27,-499.92C515.92,-489.04 531.77,-475.52 547.59,-466 558.18,-459.63 570.27,-454.03 581.78,-449.37"/>
<polygon fill="black" stroke="black" points="583.21,-452.57 591.26,-445.68 580.68,-446.05 583.21,-452.57"/>
</g>
<!-- uniptr_h&#45;&gt;misc_cpp -->
<g id="edge20" class="edge">
<title>uniptr_h&#45;&gt;misc_cpp</title>
<path fill="none" stroke="black" d="M491.78,-536.18C504.69,-576.96 535.98,-672.94 547.59,-683 603.14,-731.1 638.56,-697.67 709.18,-718 722.89,-721.95 737.61,-727 750.78,-731.83"/>
<polygon fill="black" stroke="black" points="749.92,-735.24 760.51,-735.45 752.37,-728.68 749.92,-735.24"/>
</g>
<!-- addr_h&#45;&gt;bk_h -->
<g id="edge5" class="edge">
<title>addr_h&#45;&gt;bk_h</title>
<path fill="none" stroke="black" d="M512.33,-365C534.54,-365 566.59,-365 591.22,-365"/>
<polygon fill="black" stroke="black" points="591.28,-368.5 601.28,-365 591.28,-361.5 591.28,-368.5"/>
</g>
<!-- addr_cpp -->
<g id="node25" class="node">
<title>addr_cpp</title>
<ellipse fill="none" stroke="black" cx="793.07" cy="-202" rx="43.59" ry="18"/>
<text text-anchor="middle" x="793.07" y="-198.3" font-family="Times,serif" font-size="14.00">addr_cpp</text>
</g>
<!-- addr_h&#45;&gt;addr_cpp -->
<g id="edge27" class="edge">
<title>addr_h&#45;&gt;addr_cpp</title>
<path fill="none" stroke="black" d="M512.33,-353.23C523.21,-348.41 535.97,-342.85 547.59,-338 618.87,-308.25 653.45,-327.49 709.18,-274 724.97,-258.85 713.6,-244.38 729.18,-229 734.41,-223.83 740.79,-219.59 747.45,-216.12"/>
<polygon fill="black" stroke="black" points="749.03,-219.24 756.63,-211.86 746.09,-212.89 749.03,-219.24"/>
</g>
<!-- bk_h&#45;&gt;main_cpp -->
<g id="edge25" class="edge">
<title>bk_h&#45;&gt;main_cpp</title>
<path fill="none" stroke="black" d="M655.5,-371.51C673.76,-377.53 696.97,-388.42 709.18,-407 741.35,-455.99 694.12,-623.02 729.18,-670 732.71,-674.74 737.31,-678.54 742.41,-681.6"/>
<polygon fill="black" stroke="black" points="740.86,-684.73 751.37,-686.06 743.98,-678.47 740.86,-684.73"/>
</g>
<!-- bk_h&#45;&gt;bk_cpp -->
<g id="edge32" class="edge">
<title>bk_h&#45;&gt;bk_cpp</title>
<path fill="none" stroke="black" d="M655.52,-364.84C680.03,-364.69 717.19,-364.46 746.56,-364.28"/>
<polygon fill="black" stroke="black" points="746.62,-367.78 756.59,-364.22 746.57,-360.78 746.62,-367.78"/>
</g>
<!-- bk_h&#45;&gt;tx_cpp -->
<g id="edge35" class="edge">
<title>bk_h&#45;&gt;tx_cpp</title>
<path fill="none" stroke="black" d="M655.52,-356.16C682.15,-347.16 723.73,-333.1 754.01,-322.87"/>
<polygon fill="black" stroke="black" points="755.46,-326.07 763.81,-319.55 753.22,-319.44 755.46,-326.07"/>
</g>
<!-- bk_h&#45;&gt;vin_cpp -->
<g id="edge37" class="edge">
<title>bk_h&#45;&gt;vin_cpp</title>
<path fill="none" stroke="black" d="M655.62,-374.11C672.54,-381.03 694.12,-391.94 709.18,-407 722.67,-420.5 715.16,-432.05 729.18,-445 735.13,-450.5 742.37,-454.99 749.8,-458.61"/>
<polygon fill="black" stroke="black" points="748.66,-461.93 759.22,-462.74 751.47,-455.52 748.66,-461.93"/>
</g>
<!-- bk_h&#45;&gt;vout_cpp -->
<g id="edge39" class="edge">
<title>bk_h&#45;&gt;vout_cpp</title>
<path fill="none" stroke="black" d="M655.52,-373.52C680.62,-381.69 718.99,-394.19 748.67,-403.86"/>
<polygon fill="black" stroke="black" points="747.78,-407.25 758.38,-407.02 749.95,-400.6 747.78,-407.25"/>
</g>
<!-- wit_cpp -->
<g id="node30" class="node">
<title>wit_cpp</title>
<ellipse fill="none" stroke="black" cx="793.07" cy="-256" rx="38.99" ry="18"/>
<text text-anchor="middle" x="793.07" y="-252.3" font-family="Times,serif" font-size="14.00">wit_cpp</text>
</g>
<!-- bk_h&#45;&gt;wit_cpp -->
<g id="edge40" class="edge">
<title>bk_h&#45;&gt;wit_cpp</title>
<path fill="none" stroke="black" d="M655.4,-356.54C672.44,-349.91 694.25,-339.24 709.18,-324 723.36,-309.52 714.5,-296.99 729.18,-283 735.04,-277.41 742.25,-272.88 749.66,-269.25"/>
<polygon fill="black" stroke="black" points="751.33,-272.34 759.08,-265.11 748.52,-265.93 751.33,-272.34"/>
</g>
<!-- bk_h&#45;&gt;out_cpp -->
<g id="edge59" class="edge">
<title>bk_h&#45;&gt;out_cpp</title>
<path fill="none" stroke="black" d="M655.58,-371.85C673.63,-377.99 696.56,-388.89 709.18,-407 748.13,-462.91 688.05,-504.68 729.18,-559 734.07,-565.46 740.82,-570.4 748.09,-574.16"/>
<polygon fill="black" stroke="black" points="746.92,-577.47 757.48,-578.33 749.76,-571.07 746.92,-577.47"/>
</g>
<!-- bk_h&#45;&gt;show_cpp -->
<g id="edge61" class="edge">
<title>bk_h&#45;&gt;show_cpp</title>
<path fill="none" stroke="black" d="M655.55,-372.28C673.34,-378.59 695.97,-389.51 709.18,-407 735.18,-441.43 702.5,-468.09 729.18,-502 733.8,-507.88 739.87,-512.67 746.41,-516.56"/>
<polygon fill="black" stroke="black" points="745.04,-519.79 755.52,-521.31 748.27,-513.58 745.04,-519.79"/>
</g>
<!-- opcode_h&#45;&gt;addr_cpp -->
<g id="edge28" class="edge">
<title>opcode_h&#45;&gt;addr_cpp</title>
<path fill="none" stroke="black" d="M519.75,-299.16C563.45,-283.77 642.06,-256.03 709.18,-232 722.5,-227.23 737,-222 750.11,-217.25"/>
<polygon fill="black" stroke="black" points="751.6,-220.43 759.81,-213.73 749.22,-213.85 751.6,-220.43"/>
</g>
<!-- config_file_h -->
<g id="node8" class="node">
<title>config_file_h</title>
<polygon fill="none" stroke="black" points="672.38,-988 584.38,-988 584.38,-952 672.38,-952 672.38,-988"/>
<text text-anchor="middle" x="628.38" y="-966.3" font-family="Times,serif" font-size="14.00">config_file_h</text>
</g>
<!-- config_file_h&#45;&gt;opts_cpp -->
<g id="edge43" class="edge">
<title>config_file_h&#45;&gt;opts_cpp</title>
<path fill="none" stroke="black" d="M672.55,-955.67C696.36,-947.77 725.8,-938 749.51,-930.13"/>
<polygon fill="black" stroke="black" points="750.9,-933.35 759.29,-926.88 748.69,-926.71 750.9,-933.35"/>
</g>
<!-- opts_h -->
<g id="node9" class="node">
<title>opts_h</title>
<polygon fill="none" stroke="black" points="655.38,-934 601.38,-934 601.38,-898 655.38,-898 655.38,-934"/>
<text text-anchor="middle" x="628.38" y="-912.3" font-family="Times,serif" font-size="14.00">opts_h</text>
</g>
<!-- opts_h&#45;&gt;main_cpp -->
<g id="edge23" class="edge">
<title>opts_h&#45;&gt;main_cpp</title>
<path fill="none" stroke="black" d="M655.42,-913.21C673.39,-909.84 696.29,-902.41 709.18,-886 754.81,-827.91 684.89,-780.12 729.18,-721 733.1,-715.76 738.26,-711.52 743.92,-708.1"/>
<polygon fill="black" stroke="black" points="745.85,-711.05 753.15,-703.37 742.66,-704.82 745.85,-711.05"/>
</g>
<!-- opts_h&#45;&gt;opts_cpp -->
<g id="edge42" class="edge">
<title>opts_h&#45;&gt;opts_cpp</title>
<path fill="none" stroke="black" d="M655.52,-916C678.4,-916 712.31,-916 740.62,-916"/>
<polygon fill="black" stroke="black" points="740.76,-919.5 750.76,-916 740.76,-912.5 740.76,-919.5"/>
</g>
<!-- base58_cpp -->
<g id="node32" class="node">
<title>base58_cpp</title>
<ellipse fill="none" stroke="black" cx="793.07" cy="-88" rx="51.99" ry="18"/>
<text text-anchor="middle" x="793.07" y="-84.3" font-family="Times,serif" font-size="14.00">base58_cpp</text>
</g>
<!-- encode_h&#45;&gt;base58_cpp -->
<g id="edge44" class="edge">
<title>encode_h&#45;&gt;base58_cpp</title>
<path fill="none" stroke="black" d="M662.7,-135.71C687.12,-126.71 720.55,-114.38 747.3,-104.51"/>
<polygon fill="black" stroke="black" points="748.66,-107.74 756.83,-101 746.24,-101.17 748.66,-107.74"/>
</g>
<!-- bech32_cpp -->
<g id="node33" class="node">
<title>bech32_cpp</title>
<ellipse fill="none" stroke="black" cx="793.07" cy="-34" rx="53.09" ry="18"/>
<text text-anchor="middle" x="793.07" y="-30.3" font-family="Times,serif" font-size="14.00">bech32_cpp</text>
</g>
<!-- encode_h&#45;&gt;bech32_cpp -->
<g id="edge45" class="edge">
<title>encode_h&#45;&gt;bech32_cpp</title>
<path fill="none" stroke="black" d="M646.77,-129.79C665.67,-110.76 697.46,-80.94 729.18,-61 734.66,-57.56 740.65,-54.35 746.69,-51.45"/>
<polygon fill="black" stroke="black" points="748.51,-54.47 756.16,-47.13 745.61,-48.1 748.51,-54.47"/>
</g>
<!-- uintxxx_cpp -->
<g id="node34" class="node">
<title>uintxxx_cpp</title>
<ellipse fill="none" stroke="black" cx="793.07" cy="-142" rx="54.69" ry="18"/>
<text text-anchor="middle" x="793.07" y="-138.3" font-family="Times,serif" font-size="14.00">uintxxx_cpp</text>
</g>
<!-- encode_h&#45;&gt;uintxxx_cpp -->
<g id="edge46" class="edge">
<title>encode_h&#45;&gt;uintxxx_cpp</title>
<path fill="none" stroke="black" d="M662.7,-146.77C681.64,-146.07 706,-145.17 728.47,-144.35"/>
<polygon fill="black" stroke="black" points="728.76,-147.84 738.63,-143.97 728.5,-140.84 728.76,-147.84"/>
</g>
<!-- uintxxx_h&#45;&gt;addr_cpp -->
<g id="edge29" class="edge">
<title>uintxxx_h&#45;&gt;addr_cpp</title>
<path fill="none" stroke="black" d="M663.88,-202C685.76,-202 714.48,-202 739.2,-202"/>
<polygon fill="black" stroke="black" points="739.51,-205.5 749.51,-202 739.51,-198.5 739.51,-205.5"/>
</g>
<!-- uintxxx_h&#45;&gt;bk_cpp -->
<g id="edge31" class="edge">
<title>uintxxx_h&#45;&gt;bk_cpp</title>
<path fill="none" stroke="black" d="M652.82,-220.23C670.42,-234.98 694,-257.15 709.18,-281 723.36,-303.3 711.08,-317.74 729.18,-337 735.14,-343.35 742.85,-348.28 750.81,-352.08"/>
<polygon fill="black" stroke="black" points="749.61,-355.37 760.18,-356.03 752.33,-348.92 749.61,-355.37"/>
</g>
<!-- uintxxx_h&#45;&gt;tx_cpp -->
<g id="edge34" class="edge">
<title>uintxxx_h&#45;&gt;tx_cpp</title>
<path fill="none" stroke="black" d="M648.43,-220.17C667.67,-237.85 698.81,-264.65 729.18,-283 737.24,-287.88 746.35,-292.32 755.07,-296.14"/>
<polygon fill="black" stroke="black" points="753.75,-299.38 764.33,-300.02 756.46,-292.92 753.75,-299.38"/>
</g>
<!-- uintxxx_h&#45;&gt;uintxxx_cpp -->
<g id="edge47" class="edge">
<title>uintxxx_h&#45;&gt;uintxxx_cpp</title>
<path fill="none" stroke="black" d="M664.09,-190.7C678.14,-186.01 694.49,-180.4 709.18,-175 722.15,-170.23 736.15,-164.77 748.89,-159.69"/>
<polygon fill="black" stroke="black" points="750.37,-162.86 758.35,-155.89 747.76,-156.37 750.37,-162.86"/>
</g>
<!-- bdb_h -->
<g id="node13" class="node">
<title>bdb_h</title>
<polygon fill="none" stroke="black" points="324.59,-465 270.59,-465 270.59,-429 324.59,-429 324.59,-465"/>
<text text-anchor="middle" x="297.59" y="-443.3" font-family="Times,serif" font-size="14.00">bdb_h</text>
</g>
<!-- base_h&#45;&gt;bdb_h -->
<g id="edge11" class="edge">
<title>base_h&#45;&gt;bdb_h</title>
<path fill="none" stroke="black" d="M202.01,-468.92C219.1,-464.96 241.64,-459.74 260.44,-455.38"/>
<polygon fill="black" stroke="black" points="261.48,-458.73 270.43,-453.06 259.9,-451.91 261.48,-458.73"/>
</g>
<!-- kc_h -->
<g id="node14" class="node">
<title>kc_h</title>
<polygon fill="none" stroke="black" points="324.59,-519 270.59,-519 270.59,-483 324.59,-483 324.59,-519"/>
<text text-anchor="middle" x="297.59" y="-497.3" font-family="Times,serif" font-size="14.00">kc_h</text>
</g>
<!-- base_h&#45;&gt;kc_h -->
<g id="edge12" class="edge">
<title>base_h&#45;&gt;kc_h</title>
<path fill="none" stroke="black" d="M202.01,-480.64C219.1,-484.32 241.64,-489.17 260.44,-493.22"/>
<polygon fill="black" stroke="black" points="259.92,-496.69 270.43,-495.37 261.39,-489.84 259.92,-496.69"/>
</g>
<!-- tk_h -->
<g id="node16" class="node">
<title>tk_h</title>
<polygon fill="none" stroke="black" points="324.59,-573 270.59,-573 270.59,-537 324.59,-537 324.59,-573"/>
<text text-anchor="middle" x="297.59" y="-551.3" font-family="Times,serif" font-size="14.00">tk_h</text>
</g>
<!-- base_h&#45;&gt;tk_h -->
<g id="edge13" class="edge">
<title>base_h&#45;&gt;tk_h</title>
<path fill="none" stroke="black" d="M202.01,-492.36C219.58,-504 242.9,-519.44 261.99,-532.09"/>
<polygon fill="black" stroke="black" points="260.16,-535.07 270.43,-537.68 264.03,-529.24 260.16,-535.07"/>
</g>
<!-- kv_h -->
<g id="node15" class="node">
<title>kv_h</title>
<polygon fill="none" stroke="black" points="414.59,-546 360.59,-546 360.59,-510 414.59,-510 414.59,-546"/>
<text text-anchor="middle" x="387.59" y="-524.3" font-family="Times,serif" font-size="14.00">kv_h</text>
</g>
<!-- bdb_h&#45;&gt;kv_h -->
<g id="edge14" class="edge">
<title>bdb_h&#45;&gt;kv_h</title>
<path fill="none" stroke="black" d="M318.56,-465.38C330.68,-476.54 346.32,-490.93 359.54,-503.1"/>
<polygon fill="black" stroke="black" points="357.27,-505.77 367,-509.97 362.02,-500.62 357.27,-505.77"/>
</g>
<!-- kc_h&#45;&gt;kv_h -->
<g id="edge15" class="edge">
<title>kc_h&#45;&gt;kv_h</title>
<path fill="none" stroke="black" d="M324.99,-509.1C333.07,-511.58 342.1,-514.35 350.69,-516.99"/>
<polygon fill="black" stroke="black" points="349.92,-520.41 360.51,-520 351.97,-513.72 349.92,-520.41"/>
</g>
<!-- kv_h&#45;&gt;bce_h -->
<g id="edge1" class="edge">
<title>kv_h&#45;&gt;bce_h</title>
<path fill="none" stroke="black" d="M402.07,-546.07C418.26,-567.77 445.56,-604.35 464.18,-629.31"/>
<polygon fill="black" stroke="black" points="461.58,-631.69 470.37,-637.61 467.19,-627.5 461.58,-631.69"/>
</g>
<!-- tk_h&#45;&gt;kv_h -->
<g id="edge16" class="edge">
<title>tk_h&#45;&gt;kv_h</title>
<path fill="none" stroke="black" d="M324.99,-546.9C333.07,-544.42 342.1,-541.65 350.69,-539.01"/>
<polygon fill="black" stroke="black" points="351.97,-542.28 360.51,-536 349.92,-535.59 351.97,-542.28"/>
</g>
<!-- bkidx_h&#45;&gt;main_cpp -->
<g id="edge24" class="edge">
<title>bkidx_h&#45;&gt;main_cpp</title>
<path fill="none" stroke="black" d="M659.22,-738.1C684,-729.87 719.62,-718.05 747.74,-708.72"/>
<polygon fill="black" stroke="black" points="748.95,-712 757.34,-705.53 746.75,-705.36 748.95,-712"/>
</g>
<!-- bkidx_h&#45;&gt;bkidx_cpp -->
<g id="edge53" class="edge">
<title>bkidx_h&#45;&gt;bkidx_cpp</title>
<path fill="none" stroke="black" d="M659.21,-751.71C675.8,-755.2 695.75,-761.95 709.18,-775 727.53,-792.84 711.54,-810.45 729.18,-829 733.64,-833.69 739.04,-837.61 744.8,-840.87"/>
<polygon fill="black" stroke="black" points="743.52,-844.14 754.03,-845.47 746.64,-837.88 743.52,-844.14"/>
</g>
<!-- datfarm_h -->
<g id="node18" class="node">
<title>datfarm_h</title>
<polygon fill="none" stroke="black" points="664.88,-820 591.88,-820 591.88,-784 664.88,-784 664.88,-820"/>
<text text-anchor="middle" x="628.38" y="-798.3" font-family="Times,serif" font-size="14.00">datfarm_h</text>
</g>
<!-- datfarm_h&#45;&gt;bkidx_cpp -->
<g id="edge54" class="edge">
<title>datfarm_h&#45;&gt;bkidx_cpp</title>
<path fill="none" stroke="black" d="M665.09,-813.85C689.14,-821.83 721.06,-832.43 746.88,-841"/>
<polygon fill="black" stroke="black" points="745.86,-844.35 756.45,-844.18 748.06,-837.71 745.86,-844.35"/>
</g>
<!-- datfarm_h&#45;&gt;datfarm_cpp -->
<g id="edge57" class="edge">
<title>datfarm_h&#45;&gt;datfarm_cpp</title>
<path fill="none" stroke="black" d="M665.09,-802C683.17,-802 705.71,-802 726.75,-802"/>
<polygon fill="black" stroke="black" points="726.94,-805.5 736.94,-802 726.94,-798.5 726.94,-805.5"/>
</g>
<!-- fasthex_h -->
<g id="node19" class="node">
<title>fasthex_h</title>
<polygon fill="none" stroke="black" points="662.88,-874 593.88,-874 593.88,-838 662.88,-838 662.88,-874"/>
<text text-anchor="middle" x="628.38" y="-852.3" font-family="Times,serif" font-size="14.00">fasthex_h</text>
</g>
<!-- fasthex_h&#45;&gt;bkidx_cpp -->
<g id="edge55" class="edge">
<title>fasthex_h&#45;&gt;bkidx_cpp</title>
<path fill="none" stroke="black" d="M663.09,-856C683.78,-856 710.81,-856 734.78,-856"/>
<polygon fill="black" stroke="black" points="734.83,-859.5 744.83,-856 734.83,-852.5 734.83,-859.5"/>
</g>
<!-- log_h -->
<g id="node20" class="node">
<title>log_h</title>
<polygon fill="none" stroke="black" points="655.38,-620 601.38,-620 601.38,-584 655.38,-584 655.38,-620"/>
<text text-anchor="middle" x="628.38" y="-598.3" font-family="Times,serif" font-size="14.00">log_h</text>
</g>
<!-- log_h&#45;&gt;main_cpp -->
<g id="edge26" class="edge">
<title>log_h&#45;&gt;main_cpp</title>
<path fill="none" stroke="black" d="M655.7,-605.58C672.66,-609.06 694.24,-615.86 709.18,-629 724.4,-642.39 714.21,-656.32 729.18,-670 733.6,-674.04 738.77,-677.43 744.21,-680.26"/>
<polygon fill="black" stroke="black" points="743,-683.55 753.55,-684.51 745.9,-677.18 743,-683.55"/>
</g>
<!-- log_h&#45;&gt;log_cpp -->
<g id="edge63" class="edge">
<title>log_h&#45;&gt;log_cpp</title>
<path fill="none" stroke="black" d="M655.52,-608.11C680.35,-613.9 718.17,-622.74 747.71,-629.64"/>
<polygon fill="black" stroke="black" points="747.25,-633.13 757.79,-631.99 748.84,-626.31 747.25,-633.13"/>
</g>
</g>
</svg>
