<?xml version="1.0" encoding="UTF-8" standalone="no"?>
<!DOCTYPE svg PUBLIC "-//W3C//DTD SVG 1.1//EN"
 "http://www.w3.org/Graphics/SVG/1.1/DTD/svg11.dtd">
<!-- Generated by graphviz version 2.47.2 (20210527.0053)
 -->
<!-- Title: bce2 Pages: 1 -->
<svg width="873pt" height="1078pt"
 viewBox="0.00 0.00 872.97 1078.00" xmlns="http://www.w3.org/2000/svg" xmlns:xlink="http://www.w3.org/1999/xlink">
<g id="graph0" class="graph" transform="scale(1 1) rotate(0) translate(4 1074)">
<title>bce2</title>
<polygon fill="white" stroke="transparent" points="-4,4 -4,-1074 868.97,-1074 868.97,4 -4,4"/>
<g id="clust1" class="cluster">
<title>cluster_h_bk</title>
<polygon fill="none" stroke="black" points="442.59,-236 442.59,-342 663.38,-342 663.38,-236 442.59,-236"/>
</g>
<g id="clust2" class="cluster">
<title>cluster_h_cfg</title>
<polygon fill="none" stroke="black" points="576.38,-458 576.38,-564 680.38,-564 680.38,-458 576.38,-458"/>
</g>
<g id="clust3" class="cluster">
<title>cluster_h_crypt</title>
<polygon fill="none" stroke="black" points="584.88,-106 584.88,-212 671.88,-212 671.88,-106 584.88,-106"/>
</g>
<g id="clust4" class="cluster">
<title>cluster_h_kv</title>
<polygon fill="none" stroke="black" points="139.79,-198 139.79,-358 422.59,-358 422.59,-198 139.79,-198"/>
</g>
<g id="clust5" class="cluster">
<title>cluster_h_load</title>
<polygon fill="none" stroke="black" points="583.88,-902 583.88,-1062 672.88,-1062 672.88,-902 583.88,-902"/>
</g>
<g id="clust6" class="cluster">
<title>cluster_h_out</title>
<polygon fill="none" stroke="black" points="593.38,-842 593.38,-894 663.38,-894 663.38,-842 593.38,-842"/>
</g>
<g id="clust7" class="cluster">
<title>cluster_c_bk</title>
<polygon fill="none" stroke="black" points="741.53,-176 741.53,-498 844.62,-498 844.62,-176 741.53,-176"/>
</g>
<g id="clust8" class="cluster">
<title>cluster_c_cfg</title>
<polygon fill="none" stroke="black" points="742.83,-506 742.83,-558 843.32,-558 843.32,-506 742.83,-506"/>
</g>
<g id="clust9" class="cluster">
<title>cluster_c_crypt</title>
<polygon fill="none" stroke="black" points="730.48,-8 730.48,-168 855.67,-168 855.67,-8 730.48,-8"/>
</g>
<g id="clust10" class="cluster">
<title>cluster_c_kv</title>
<polygon fill="none" stroke="black" points="547.59,-620 547.59,-834 709.18,-834 709.18,-620 547.59,-620"/>
</g>
<g id="clust11" class="cluster">
<title>cluster_c_load</title>
<polygon fill="none" stroke="black" points="729.18,-875 729.18,-981 856.97,-981 856.97,-875 729.18,-875"/>
</g>
<g id="clust12" class="cluster">
<title>cluster_c_out</title>
<polygon fill="none" stroke="black" points="738.93,-566 738.93,-726 847.22,-726 847.22,-566 738.93,-566"/>
</g>
<!-- bce_h -->
<g id="node1" class="node">
<title>bce_h</title>
<polygon fill="none" stroke="black" points="512.09,-610 458.09,-610 458.09,-574 512.09,-574 512.09,-610"/>
<text text-anchor="middle" x="485.09" y="-588.3" font-family="Times,serif" font-size="14.00">bce_h</text>
</g>
<!-- misc_h -->
<g id="node3" class="node">
<title>misc_h</title>
<polygon fill="none" stroke="black" points="656.38,-610 600.38,-610 600.38,-574 656.38,-574 656.38,-610"/>
<text text-anchor="middle" x="628.38" y="-588.3" font-family="Times,serif" font-size="14.00">misc_h</text>
</g>
<!-- bce_h&#45;&gt;misc_h -->
<g id="edge2" class="edge">
<title>bce_h&#45;&gt;misc_h</title>
<path fill="none" stroke="black" d="M512.33,-592C534.26,-592 565.79,-592 590.29,-592"/>
<polygon fill="black" stroke="black" points="590.32,-595.5 600.32,-592 590.32,-588.5 590.32,-595.5"/>
</g>
<!-- bk_cpp -->
<g id="node24" class="node">
<title>bk_cpp</title>
<ellipse fill="none" stroke="black" cx="793.07" cy="-256" rx="36.29" ry="18"/>
<text text-anchor="middle" x="793.07" y="-252.3" font-family="Times,serif" font-size="14.00">bk_cpp</text>
</g>
<!-- bce_h&#45;&gt;bk_cpp -->
<g id="edge26" class="edge">
<title>bce_h&#45;&gt;bk_cpp</title>
<path fill="none" stroke="black" d="M485.37,-573.99C484.75,-532.34 489.49,-428.89 547.59,-376 601.6,-326.83 654.43,-394.35 709.18,-346 731.19,-326.55 709.45,-304.77 729.18,-283 735.03,-276.55 742.68,-271.57 750.63,-267.76"/>
<polygon fill="black" stroke="black" points="752.16,-270.92 760.01,-263.81 749.44,-264.47 752.16,-270.92"/>
</g>
<!-- tx_cpp -->
<g id="node25" class="node">
<title>tx_cpp</title>
<ellipse fill="none" stroke="black" cx="793.07" cy="-310" rx="34.39" ry="18"/>
<text text-anchor="middle" x="793.07" y="-306.3" font-family="Times,serif" font-size="14.00">tx_cpp</text>
</g>
<!-- bce_h&#45;&gt;tx_cpp -->
<g id="edge29" class="edge">
<title>bce_h&#45;&gt;tx_cpp</title>
<path fill="none" stroke="black" d="M487.03,-573.87C489.88,-538.32 501.36,-459.27 547.59,-417 602.27,-367 651.23,-422.17 709.18,-376 724.41,-363.86 714.94,-350.3 729.18,-337 735.87,-330.75 744.22,-325.82 752.64,-321.98"/>
<polygon fill="black" stroke="black" points="754.16,-325.14 762.08,-318.09 751.5,-318.66 754.16,-325.14"/>
</g>
<!-- vout_cpp -->
<g id="node27" class="node">
<title>vout_cpp</title>
<ellipse fill="none" stroke="black" cx="793.07" cy="-418" rx="43.59" ry="18"/>
<text text-anchor="middle" x="793.07" y="-414.3" font-family="Times,serif" font-size="14.00">vout_cpp</text>
</g>
<!-- bce_h&#45;&gt;vout_cpp -->
<g id="edge34" class="edge">
<title>bce_h&#45;&gt;vout_cpp</title>
<path fill="none" stroke="black" d="M488.57,-573.79C493.71,-543.61 508.51,-483.64 547.59,-454 576.93,-431.74 676.89,-423.15 739.54,-419.9"/>
<polygon fill="black" stroke="black" points="739.82,-423.39 749.63,-419.41 739.48,-416.4 739.82,-423.39"/>
</g>
<!-- bdb_cpp -->
<g id="node33" class="node">
<title>bdb_cpp</title>
<ellipse fill="none" stroke="black" cx="628.38" cy="-754" rx="40.89" ry="18"/>
<text text-anchor="middle" x="628.38" y="-750.3" font-family="Times,serif" font-size="14.00">bdb_cpp</text>
</g>
<!-- bce_h&#45;&gt;bdb_cpp -->
<g id="edge45" class="edge">
<title>bce_h&#45;&gt;bdb_cpp</title>
<path fill="none" stroke="black" d="M489.5,-610.02C495.86,-638.78 512.24,-695.06 547.59,-727 556.66,-735.2 568.32,-740.92 579.9,-744.91"/>
<polygon fill="black" stroke="black" points="578.97,-748.28 589.56,-747.87 581.02,-741.59 578.97,-748.28"/>
</g>
<!-- kv_common_cpp -->
<g id="node34" class="node">
<title>kv_common_cpp</title>
<ellipse fill="none" stroke="black" cx="628.38" cy="-700" rx="72.59" ry="18"/>
<text text-anchor="middle" x="628.38" y="-696.3" font-family="Times,serif" font-size="14.00">kv_common_cpp</text>
</g>
<!-- bce_h&#45;&gt;kv_common_cpp -->
<g id="edge44" class="edge">
<title>bce_h&#45;&gt;kv_common_cpp</title>
<path fill="none" stroke="black" d="M495.68,-610.32C506.14,-628.64 524.52,-656.39 547.59,-673 553.17,-677.02 559.4,-680.47 565.84,-683.43"/>
<polygon fill="black" stroke="black" points="564.81,-686.79 575.38,-687.42 567.51,-680.34 564.81,-686.79"/>
</g>
<!-- kc_cpp -->
<g id="node35" class="node">
<title>kc_cpp</title>
<ellipse fill="none" stroke="black" cx="628.38" cy="-646" rx="36.29" ry="18"/>
<text text-anchor="middle" x="628.38" y="-642.3" font-family="Times,serif" font-size="14.00">kc_cpp</text>
</g>
<!-- bce_h&#45;&gt;kc_cpp -->
<g id="edge46" class="edge">
<title>bce_h&#45;&gt;kc_cpp</title>
<path fill="none" stroke="black" d="M512.21,-604.07C523.07,-608.93 535.85,-614.45 547.59,-619 560.52,-624.01 574.82,-629.02 587.7,-633.33"/>
<polygon fill="black" stroke="black" points="586.63,-636.67 597.23,-636.49 588.83,-630.02 586.63,-636.67"/>
</g>
<!-- tk_cpp -->
<g id="node36" class="node">
<title>tk_cpp</title>
<ellipse fill="none" stroke="black" cx="628.38" cy="-808" rx="34.39" ry="18"/>
<text text-anchor="middle" x="628.38" y="-804.3" font-family="Times,serif" font-size="14.00">tk_cpp</text>
</g>
<!-- bce_h&#45;&gt;tk_cpp -->
<g id="edge47" class="edge">
<title>bce_h&#45;&gt;tk_cpp</title>
<path fill="none" stroke="black" d="M486.79,-610.07C489.2,-647.23 499.93,-732.78 547.59,-781 557.5,-791.03 571.27,-797.33 584.58,-801.3"/>
<polygon fill="black" stroke="black" points="584.04,-804.77 594.59,-803.89 585.79,-798 584.04,-804.77"/>
</g>
<!-- common_h -->
<g id="node2" class="node">
<title>common_h</title>
<polygon fill="none" stroke="black" points="79,-296 0,-296 0,-260 79,-260 79,-296"/>
<text text-anchor="middle" x="39.5" y="-274.3" font-family="Times,serif" font-size="14.00">common_h</text>
</g>
<!-- addr_h -->
<g id="node4" class="node">
<title>addr_h</title>
<polygon fill="none" stroke="black" points="512.09,-334 458.09,-334 458.09,-298 512.09,-298 512.09,-334"/>
<text text-anchor="middle" x="485.09" y="-312.3" font-family="Times,serif" font-size="14.00">addr_h</text>
</g>
<!-- common_h&#45;&gt;addr_h -->
<g id="edge3" class="edge">
<title>common_h&#45;&gt;addr_h</title>
<path fill="none" stroke="black" d="M46.99,-296.21C57.14,-321.68 79.37,-367.15 115,-388 232.99,-457.04 302.68,-451.65 422.59,-386 441.09,-375.87 456.7,-357.9 467.57,-342.7"/>
<polygon fill="black" stroke="black" points="470.65,-344.38 473.4,-334.15 464.87,-340.44 470.65,-344.38"/>
</g>
<!-- opcode_h -->
<g id="node6" class="node">
<title>opcode_h</title>
<polygon fill="none" stroke="black" points="519.59,-280 450.59,-280 450.59,-244 519.59,-244 519.59,-280"/>
<text text-anchor="middle" x="485.09" y="-258.3" font-family="Times,serif" font-size="14.00">opcode_h</text>
</g>
<!-- common_h&#45;&gt;opcode_h -->
<g id="edge5" class="edge">
<title>common_h&#45;&gt;opcode_h</title>
<path fill="none" stroke="black" d="M50.27,-296.19C62.38,-316.59 85.13,-348.57 115,-362 177.34,-390.04 368.24,-403.46 422.59,-362 449.34,-341.6 422.75,-316.17 442.59,-289 442.95,-288.5 443.33,-288.01 443.72,-287.52"/>
<polygon fill="black" stroke="black" points="446.34,-289.85 450.83,-280.25 441.34,-284.95 446.34,-289.85"/>
</g>
<!-- encode_h -->
<g id="node9" class="node">
<title>encode_h</title>
<polygon fill="none" stroke="black" points="662.38,-150 594.38,-150 594.38,-114 662.38,-114 662.38,-150"/>
<text text-anchor="middle" x="628.38" y="-128.3" font-family="Times,serif" font-size="14.00">encode_h</text>
</g>
<!-- common_h&#45;&gt;encode_h -->
<g id="edge6" class="edge">
<title>common_h&#45;&gt;encode_h</title>
<path fill="none" stroke="black" d="M47.37,-259.7C57.84,-234.56 80.31,-189.96 115,-168 184,-124.33 214.93,-140 296.59,-140 296.59,-140 296.59,-140 388.59,-140 456.99,-140 536.35,-136.68 584.17,-134.32"/>
<polygon fill="black" stroke="black" points="584.36,-137.81 594.17,-133.82 584.01,-130.82 584.36,-137.81"/>
</g>
<!-- uintxxx_h -->
<g id="node10" class="node">
<title>uintxxx_h</title>
<polygon fill="none" stroke="black" points="663.88,-204 592.88,-204 592.88,-168 663.88,-168 663.88,-204"/>
<text text-anchor="middle" x="628.38" y="-182.3" font-family="Times,serif" font-size="14.00">uintxxx_h</text>
</g>
<!-- common_h&#45;&gt;uintxxx_h -->
<g id="edge7" class="edge">
<title>common_h&#45;&gt;uintxxx_h</title>
<path fill="none" stroke="black" d="M50.71,-259.91C63.08,-239.93 85.93,-208.64 115,-194 187.36,-157.56 215.57,-178 296.59,-178 296.59,-178 296.59,-178 388.59,-178 456.22,-178 534.56,-181.24 582.54,-183.6"/>
<polygon fill="black" stroke="black" points="582.43,-187.1 592.59,-184.1 582.78,-180.11 582.43,-187.1"/>
</g>
<!-- base_h -->
<g id="node11" class="node">
<title>base_h</title>
<polygon fill="none" stroke="black" points="201.79,-296 147.79,-296 147.79,-260 201.79,-260 201.79,-296"/>
<text text-anchor="middle" x="174.79" y="-274.3" font-family="Times,serif" font-size="14.00">base_h</text>
</g>
<!-- common_h&#45;&gt;base_h -->
<g id="edge8" class="edge">
<title>common_h&#45;&gt;base_h</title>
<path fill="none" stroke="black" d="M79.05,-278C97.44,-278 119.31,-278 137.4,-278"/>
<polygon fill="black" stroke="black" points="137.57,-281.5 147.57,-278 137.57,-274.5 137.57,-281.5"/>
</g>
<!-- bkidx_h -->
<g id="node16" class="node">
<title>bkidx_h</title>
<polygon fill="none" stroke="black" points="658.88,-946 597.88,-946 597.88,-910 658.88,-910 658.88,-946"/>
<text text-anchor="middle" x="628.38" y="-924.3" font-family="Times,serif" font-size="14.00">bkidx_h</text>
</g>
<!-- common_h&#45;&gt;bkidx_h -->
<g id="edge15" class="edge">
<title>common_h&#45;&gt;bkidx_h</title>
<path fill="none" stroke="black" d="M41.04,-296.27C44.74,-386.81 73.69,-783 296.59,-783 296.59,-783 296.59,-783 388.59,-783 475.8,-783 470.76,-856.73 547.59,-898 560.26,-904.81 574.82,-910.77 588,-915.55"/>
<polygon fill="black" stroke="black" points="587.16,-918.97 597.76,-918.97 589.48,-912.36 587.16,-918.97"/>
</g>
<!-- common_cpp -->
<g id="node20" class="node">
<title>common_cpp</title>
<ellipse fill="none" stroke="black" cx="174.79" cy="-94" rx="59.59" ry="18"/>
<text text-anchor="middle" x="174.79" y="-90.3" font-family="Times,serif" font-size="14.00">common_cpp</text>
</g>
<!-- common_h&#45;&gt;common_cpp -->
<g id="edge16" class="edge">
<title>common_h&#45;&gt;common_cpp</title>
<path fill="none" stroke="black" d="M45.39,-259.97C54.51,-229.17 76.78,-165.89 115,-126 119.38,-121.43 124.56,-117.36 129.99,-113.77"/>
<polygon fill="black" stroke="black" points="131.91,-116.7 138.68,-108.55 128.3,-110.71 131.91,-116.7"/>
</g>
<!-- misc_cpp -->
<g id="node21" class="node">
<title>misc_cpp</title>
<ellipse fill="none" stroke="black" cx="793.07" cy="-808" rx="44.69" ry="18"/>
<text text-anchor="middle" x="793.07" y="-804.3" font-family="Times,serif" font-size="14.00">misc_cpp</text>
</g>
<!-- misc_h&#45;&gt;misc_cpp -->
<g id="edge17" class="edge">
<title>misc_h&#45;&gt;misc_cpp</title>
<path fill="none" stroke="black" d="M656.42,-592.86C674.14,-594.95 696.32,-600.73 709.18,-616 756.74,-672.52 684.89,-721.88 729.18,-781 733.34,-786.56 738.88,-790.99 744.96,-794.51"/>
<polygon fill="black" stroke="black" points="743.62,-797.75 754.14,-799.05 746.72,-791.48 743.62,-797.75"/>
</g>
<!-- main_cpp -->
<g id="node22" class="node">
<title>main_cpp</title>
<ellipse fill="none" stroke="black" cx="793.07" cy="-754" rx="46.29" ry="18"/>
<text text-anchor="middle" x="793.07" y="-750.3" font-family="Times,serif" font-size="14.00">main_cpp</text>
</g>
<!-- misc_h&#45;&gt;main_cpp -->
<g id="edge18" class="edge">
<title>misc_h&#45;&gt;main_cpp</title>
<path fill="none" stroke="black" d="M656.55,-593.13C674.09,-595.35 696.02,-601.18 709.18,-616 743.33,-654.46 696.43,-690.33 729.18,-730 732.94,-734.56 737.68,-738.26 742.85,-741.25"/>
<polygon fill="black" stroke="black" points="741.35,-744.42 751.88,-745.66 744.42,-738.13 741.35,-744.42"/>
</g>
<!-- vin_cpp -->
<g id="node26" class="node">
<title>vin_cpp</title>
<ellipse fill="none" stroke="black" cx="793.07" cy="-472" rx="38.99" ry="18"/>
<text text-anchor="middle" x="793.07" y="-468.3" font-family="Times,serif" font-size="14.00">vin_cpp</text>
</g>
<!-- misc_h&#45;&gt;vin_cpp -->
<g id="edge32" class="edge">
<title>misc_h&#45;&gt;vin_cpp</title>
<path fill="none" stroke="black" d="M656.75,-590.23C673.92,-587.71 695.35,-581.79 709.18,-568 730.87,-546.35 709.2,-525.24 729.18,-502 734.9,-495.34 742.44,-490.04 750.3,-485.88"/>
<polygon fill="black" stroke="black" points="752.04,-488.92 759.58,-481.48 749.04,-482.6 752.04,-488.92"/>
</g>
<!-- opts_cpp -->
<g id="node29" class="node">
<title>opts_cpp</title>
<ellipse fill="none" stroke="black" cx="793.07" cy="-532" rx="42.49" ry="18"/>
<text text-anchor="middle" x="793.07" y="-528.3" font-family="Times,serif" font-size="14.00">opts_cpp</text>
</g>
<!-- misc_h&#45;&gt;opts_cpp -->
<g id="edge37" class="edge">
<title>misc_h&#45;&gt;opts_cpp</title>
<path fill="none" stroke="black" d="M656.61,-584.67C672.15,-580.27 691.92,-574.32 709.18,-568 724.26,-562.48 740.54,-555.62 754.64,-549.37"/>
<polygon fill="black" stroke="black" points="756.32,-552.45 764.01,-545.16 753.46,-546.06 756.32,-552.45"/>
</g>
<!-- bkidx_cpp -->
<g id="node37" class="node">
<title>bkidx_cpp</title>
<ellipse fill="none" stroke="black" cx="793.07" cy="-955" rx="48.19" ry="18"/>
<text text-anchor="middle" x="793.07" y="-951.3" font-family="Times,serif" font-size="14.00">bkidx_cpp</text>
</g>
<!-- misc_h&#45;&gt;bkidx_cpp -->
<g id="edge48" class="edge">
<title>misc_h&#45;&gt;bkidx_cpp</title>
<path fill="none" stroke="black" d="M656.7,-592.63C674.54,-594.62 696.76,-600.37 709.18,-616 752.39,-670.4 689.11,-871.24 729.18,-928 732.73,-933.04 737.43,-937.14 742.66,-940.49"/>
<polygon fill="black" stroke="black" points="741.4,-943.78 751.86,-945.42 744.71,-937.61 741.4,-943.78"/>
</g>
<!-- datfarm_cpp -->
<g id="node38" class="node">
<title>datfarm_cpp</title>
<ellipse fill="none" stroke="black" cx="793.07" cy="-901" rx="55.79" ry="18"/>
<text text-anchor="middle" x="793.07" y="-897.3" font-family="Times,serif" font-size="14.00">datfarm_cpp</text>
</g>
<!-- misc_h&#45;&gt;datfarm_cpp -->
<g id="edge52" class="edge">
<title>misc_h&#45;&gt;datfarm_cpp</title>
<path fill="none" stroke="black" d="M656.56,-592.74C674.35,-594.77 696.55,-600.54 709.18,-616 740.09,-653.85 708.97,-790.5 729.18,-835 736.65,-851.47 749.99,-866.39 762.46,-877.86"/>
<polygon fill="black" stroke="black" points="760.24,-880.56 770.06,-884.54 764.86,-875.3 760.24,-880.56"/>
</g>
<!-- log_cpp -->
<g id="node39" class="node">
<title>log_cpp</title>
<ellipse fill="none" stroke="black" cx="793.07" cy="-700" rx="38.99" ry="18"/>
<text text-anchor="middle" x="793.07" y="-696.3" font-family="Times,serif" font-size="14.00">log_cpp</text>
</g>
<!-- misc_h&#45;&gt;log_cpp -->
<g id="edge58" class="edge">
<title>misc_h&#45;&gt;log_cpp</title>
<path fill="none" stroke="black" d="M656.55,-593.97C673.64,-596.57 695.06,-602.51 709.18,-616 728.59,-634.55 710.85,-653.38 729.18,-673 734.71,-678.92 741.76,-683.61 749.12,-687.29"/>
<polygon fill="black" stroke="black" points="747.97,-690.61 758.53,-691.44 750.79,-684.2 747.97,-690.61"/>
</g>
<!-- out_cpp -->
<g id="node40" class="node">
<title>out_cpp</title>
<ellipse fill="none" stroke="black" cx="793.07" cy="-646" rx="38.99" ry="18"/>
<text text-anchor="middle" x="793.07" y="-642.3" font-family="Times,serif" font-size="14.00">out_cpp</text>
</g>
<!-- misc_h&#45;&gt;out_cpp -->
<g id="edge54" class="edge">
<title>misc_h&#45;&gt;out_cpp</title>
<path fill="none" stroke="black" d="M656.46,-599.74C671.96,-604.27 691.74,-610.23 709.18,-616 723.44,-620.72 738.95,-626.23 752.66,-631.24"/>
<polygon fill="black" stroke="black" points="751.69,-634.61 762.28,-634.77 754.1,-628.04 751.69,-634.61"/>
</g>
<!-- show_cpp -->
<g id="node41" class="node">
<title>show_cpp</title>
<ellipse fill="none" stroke="black" cx="793.07" cy="-592" rx="46.29" ry="18"/>
<text text-anchor="middle" x="793.07" y="-588.3" font-family="Times,serif" font-size="14.00">show_cpp</text>
</g>
<!-- misc_h&#45;&gt;show_cpp -->
<g id="edge56" class="edge">
<title>misc_h&#45;&gt;show_cpp</title>
<path fill="none" stroke="black" d="M656.61,-592C678.43,-592 709.75,-592 736.78,-592"/>
<polygon fill="black" stroke="black" points="736.9,-595.5 746.9,-592 736.9,-588.5 736.9,-595.5"/>
</g>
<!-- bk_h -->
<g id="node5" class="node">
<title>bk_h</title>
<polygon fill="none" stroke="black" points="655.38,-334 601.38,-334 601.38,-298 655.38,-298 655.38,-334"/>
<text text-anchor="middle" x="628.38" y="-312.3" font-family="Times,serif" font-size="14.00">bk_h</text>
</g>
<!-- addr_h&#45;&gt;bk_h -->
<g id="edge4" class="edge">
<title>addr_h&#45;&gt;bk_h</title>
<path fill="none" stroke="black" d="M512.33,-316C534.54,-316 566.59,-316 591.22,-316"/>
<polygon fill="black" stroke="black" points="591.28,-319.5 601.28,-316 591.28,-312.5 591.28,-319.5"/>
</g>
<!-- addr_cpp -->
<g id="node23" class="node">
<title>addr_cpp</title>
<ellipse fill="none" stroke="black" cx="793.07" cy="-202" rx="43.59" ry="18"/>
<text text-anchor="middle" x="793.07" y="-198.3" font-family="Times,serif" font-size="14.00">addr_cpp</text>
</g>
<!-- addr_h&#45;&gt;addr_cpp -->
<g id="edge23" class="edge">
<title>addr_h&#45;&gt;addr_cpp</title>
<path fill="none" stroke="black" d="M512.35,-303.33C523.11,-298.44 535.79,-293.06 547.59,-289 617.66,-264.91 644.3,-283.79 709.18,-248 719.91,-242.08 718.94,-235.75 729.18,-229 735.52,-224.82 742.62,-221.04 749.7,-217.73"/>
<polygon fill="black" stroke="black" points="751.54,-220.74 759.27,-213.5 748.71,-214.34 751.54,-220.74"/>
</g>
<!-- bk_h&#45;&gt;main_cpp -->
<g id="edge21" class="edge">
<title>bk_h&#45;&gt;main_cpp</title>
<path fill="none" stroke="black" d="M643.7,-334.37C662.51,-359.68 694.86,-407.44 709.18,-454 727.25,-512.78 692.49,-680.65 729.18,-730 732.71,-734.75 737.3,-738.55 742.39,-741.61"/>
<polygon fill="black" stroke="black" points="740.84,-744.74 751.35,-746.07 743.96,-738.48 740.84,-744.74"/>
</g>
<!-- bk_h&#45;&gt;bk_cpp -->
<g id="edge28" class="edge">
<title>bk_h&#45;&gt;bk_cpp</title>
<path fill="none" stroke="black" d="M655.52,-306.36C682.19,-296.53 723.84,-281.16 754.13,-269.99"/>
<polygon fill="black" stroke="black" points="755.36,-273.27 763.53,-266.52 752.94,-266.7 755.36,-273.27"/>
</g>
<!-- bk_h&#45;&gt;tx_cpp -->
<g id="edge31" class="edge">
<title>bk_h&#45;&gt;tx_cpp</title>
<path fill="none" stroke="black" d="M655.52,-315.04C680.59,-314.11 718.9,-312.7 748.57,-311.6"/>
<polygon fill="black" stroke="black" points="748.81,-315.1 758.67,-311.23 748.55,-308.1 748.81,-315.1"/>
</g>
<!-- bk_h&#45;&gt;vin_cpp -->
<g id="edge33" class="edge">
<title>bk_h&#45;&gt;vin_cpp</title>
<path fill="none" stroke="black" d="M639.36,-334.2C655.18,-361.56 688.43,-413.45 729.18,-445 735.72,-450.07 743.36,-454.38 751.02,-457.97"/>
<polygon fill="black" stroke="black" points="749.73,-461.22 760.29,-461.99 752.51,-454.8 749.73,-461.22"/>
</g>
<!-- bk_h&#45;&gt;vout_cpp -->
<g id="edge35" class="edge">
<title>bk_h&#45;&gt;vout_cpp</title>
<path fill="none" stroke="black" d="M650.53,-334.26C670.05,-350.53 700.3,-374.27 729.18,-391 736.04,-394.98 743.61,-398.72 751.04,-402.07"/>
<polygon fill="black" stroke="black" points="749.76,-405.33 760.32,-406.11 752.55,-398.91 749.76,-405.33"/>
</g>
<!-- wit_cpp -->
<g id="node28" class="node">
<title>wit_cpp</title>
<ellipse fill="none" stroke="black" cx="793.07" cy="-364" rx="38.99" ry="18"/>
<text text-anchor="middle" x="793.07" y="-360.3" font-family="Times,serif" font-size="14.00">wit_cpp</text>
</g>
<!-- bk_h&#45;&gt;wit_cpp -->
<g id="edge36" class="edge">
<title>bk_h&#45;&gt;wit_cpp</title>
<path fill="none" stroke="black" d="M655.52,-323.71C681.02,-331.24 720.23,-342.8 750.1,-351.62"/>
<polygon fill="black" stroke="black" points="749.26,-355.02 759.84,-354.49 751.24,-348.3 749.26,-355.02"/>
</g>
<!-- bk_h&#45;&gt;out_cpp -->
<g id="edge55" class="edge">
<title>bk_h&#45;&gt;out_cpp</title>
<path fill="none" stroke="black" d="M643.05,-334.04C661.45,-359.36 693.65,-407.54 709.18,-454 732.58,-524.06 684.89,-559.88 729.18,-619 734.04,-625.49 740.77,-630.43 748.04,-634.2"/>
<polygon fill="black" stroke="black" points="746.86,-637.51 757.42,-638.37 749.7,-631.11 746.86,-637.51"/>
</g>
<!-- bk_h&#45;&gt;show_cpp -->
<g id="edge57" class="edge">
<title>bk_h&#45;&gt;show_cpp</title>
<path fill="none" stroke="black" d="M642.64,-334.19C660.56,-359.67 692.21,-408.05 709.18,-454 726.08,-499.79 699.46,-523.27 729.18,-562 733.73,-567.94 739.76,-572.76 746.28,-576.66"/>
<polygon fill="black" stroke="black" points="744.91,-579.89 755.39,-581.41 748.15,-573.68 744.91,-579.89"/>
</g>
<!-- opcode_h&#45;&gt;addr_cpp -->
<g id="edge24" class="edge">
<title>opcode_h&#45;&gt;addr_cpp</title>
<path fill="none" stroke="black" d="M519.71,-255.41C573.83,-244.8 680.51,-223.88 743.09,-211.6"/>
<polygon fill="black" stroke="black" points="743.98,-215 753.11,-209.64 742.63,-208.13 743.98,-215"/>
</g>
<!-- config_file_h -->
<g id="node7" class="node">
<title>config_file_h</title>
<polygon fill="none" stroke="black" points="672.38,-502 584.38,-502 584.38,-466 672.38,-466 672.38,-502"/>
<text text-anchor="middle" x="628.38" y="-480.3" font-family="Times,serif" font-size="14.00">config_file_h</text>
</g>
<!-- config_file_h&#45;&gt;opts_cpp -->
<g id="edge39" class="edge">
<title>config_file_h&#45;&gt;opts_cpp</title>
<path fill="none" stroke="black" d="M672.55,-496.74C695.95,-503.64 724.79,-512.15 748.27,-519.08"/>
<polygon fill="black" stroke="black" points="747.4,-522.47 757.98,-521.94 749.38,-515.76 747.4,-522.47"/>
</g>
<!-- opts_h -->
<g id="node8" class="node">
<title>opts_h</title>
<polygon fill="none" stroke="black" points="655.38,-556 601.38,-556 601.38,-520 655.38,-520 655.38,-556"/>
<text text-anchor="middle" x="628.38" y="-534.3" font-family="Times,serif" font-size="14.00">opts_h</text>
</g>
<!-- opts_h&#45;&gt;main_cpp -->
<g id="edge19" class="edge">
<title>opts_h&#45;&gt;main_cpp</title>
<path fill="none" stroke="black" d="M655.73,-539.82C673.61,-542.53 696.26,-549.11 709.18,-565 755.77,-622.32 683.68,-671.8 729.18,-730 732.82,-734.66 737.48,-738.42 742.61,-741.44"/>
<polygon fill="black" stroke="black" points="741.09,-744.59 751.6,-745.88 744.18,-738.31 741.09,-744.59"/>
</g>
<!-- opts_h&#45;&gt;opts_cpp -->
<g id="edge38" class="edge">
<title>opts_h&#45;&gt;opts_cpp</title>
<path fill="none" stroke="black" d="M655.52,-537.04C678.4,-536.19 712.31,-534.94 740.62,-533.9"/>
<polygon fill="black" stroke="black" points="740.89,-537.39 750.76,-533.52 740.64,-530.39 740.89,-537.39"/>
</g>
<!-- base58_cpp -->
<g id="node30" class="node">
<title>base58_cpp</title>
<ellipse fill="none" stroke="black" cx="793.07" cy="-34" rx="51.99" ry="18"/>
<text text-anchor="middle" x="793.07" y="-30.3" font-family="Times,serif" font-size="14.00">base58_cpp</text>
</g>
<!-- encode_h&#45;&gt;base58_cpp -->
<g id="edge40" class="edge">
<title>encode_h&#45;&gt;base58_cpp</title>
<path fill="none" stroke="black" d="M651.85,-113.9C671.5,-98.6 701.19,-76.73 729.18,-61 735.16,-57.64 741.65,-54.42 748.11,-51.44"/>
<polygon fill="black" stroke="black" points="749.77,-54.54 757.49,-47.28 746.93,-48.14 749.77,-54.54"/>
</g>
<!-- bech32_cpp -->
<g id="node31" class="node">
<title>bech32_cpp</title>
<ellipse fill="none" stroke="black" cx="793.07" cy="-88" rx="53.09" ry="18"/>
<text text-anchor="middle" x="793.07" y="-84.3" font-family="Times,serif" font-size="14.00">bech32_cpp</text>
</g>
<!-- encode_h&#45;&gt;bech32_cpp -->
<g id="edge41" class="edge">
<title>encode_h&#45;&gt;bech32_cpp</title>
<path fill="none" stroke="black" d="M662.7,-122.99C685.27,-116.89 715.52,-108.7 741.1,-101.79"/>
<polygon fill="black" stroke="black" points="742.27,-105.1 751.01,-99.11 740.44,-98.34 742.27,-105.1"/>
</g>
<!-- uintxxx_cpp -->
<g id="node32" class="node">
<title>uintxxx_cpp</title>
<ellipse fill="none" stroke="black" cx="793.07" cy="-142" rx="54.69" ry="18"/>
<text text-anchor="middle" x="793.07" y="-138.3" font-family="Times,serif" font-size="14.00">uintxxx_cpp</text>
</g>
<!-- encode_h&#45;&gt;uintxxx_cpp -->
<g id="edge42" class="edge">
<title>encode_h&#45;&gt;uintxxx_cpp</title>
<path fill="none" stroke="black" d="M662.7,-134.05C681.8,-135.22 706.42,-136.74 729.04,-138.13"/>
<polygon fill="black" stroke="black" points="729.07,-141.63 739.26,-138.75 729.5,-134.65 729.07,-141.63"/>
</g>
<!-- uintxxx_h&#45;&gt;addr_cpp -->
<g id="edge25" class="edge">
<title>uintxxx_h&#45;&gt;addr_cpp</title>
<path fill="none" stroke="black" d="M663.88,-189.39C686.1,-191.58 715.39,-194.46 740.36,-196.91"/>
<polygon fill="black" stroke="black" points="740.11,-200.41 750.41,-197.9 740.8,-193.44 740.11,-200.41"/>
</g>
<!-- uintxxx_h&#45;&gt;bk_cpp -->
<g id="edge27" class="edge">
<title>uintxxx_h&#45;&gt;bk_cpp</title>
<path fill="none" stroke="black" d="M664.02,-200.94C683.21,-209.21 707.51,-219.68 729.18,-229 737.83,-232.72 747.16,-236.73 755.92,-240.49"/>
<polygon fill="black" stroke="black" points="754.56,-243.72 765.13,-244.45 757.33,-237.29 754.56,-243.72"/>
</g>
<!-- uintxxx_h&#45;&gt;tx_cpp -->
<g id="edge30" class="edge">
<title>uintxxx_h&#45;&gt;tx_cpp</title>
<path fill="none" stroke="black" d="M664.02,-199.61C679.56,-207.18 697.07,-217.94 709.18,-232 725.06,-250.45 712.24,-265.51 729.18,-283 735.54,-289.57 743.77,-294.64 752.17,-298.5"/>
<polygon fill="black" stroke="black" points="751.04,-301.82 761.62,-302.37 753.69,-295.34 751.04,-301.82"/>
</g>
<!-- uintxxx_h&#45;&gt;uintxxx_cpp -->
<g id="edge43" class="edge">
<title>uintxxx_h&#45;&gt;uintxxx_cpp</title>
<path fill="none" stroke="black" d="M663.88,-176.67C686.2,-170.63 715.65,-162.67 740.69,-155.9"/>
<polygon fill="black" stroke="black" points="741.67,-159.26 750.41,-153.27 739.84,-152.5 741.67,-159.26"/>
</g>
<!-- bdb_h -->
<g id="node12" class="node">
<title>bdb_h</title>
<polygon fill="none" stroke="black" points="324.59,-242 270.59,-242 270.59,-206 324.59,-206 324.59,-242"/>
<text text-anchor="middle" x="297.59" y="-220.3" font-family="Times,serif" font-size="14.00">bdb_h</text>
</g>
<!-- base_h&#45;&gt;bdb_h -->
<g id="edge9" class="edge">
<title>base_h&#45;&gt;bdb_h</title>
<path fill="none" stroke="black" d="M202.01,-266.28C219.34,-258.53 242.27,-248.28 261.22,-239.81"/>
<polygon fill="black" stroke="black" points="262.73,-242.97 270.43,-235.69 259.87,-236.58 262.73,-242.97"/>
</g>
<!-- kc_h -->
<g id="node13" class="node">
<title>kc_h</title>
<polygon fill="none" stroke="black" points="324.59,-296 270.59,-296 270.59,-260 324.59,-260 324.59,-296"/>
<text text-anchor="middle" x="297.59" y="-274.3" font-family="Times,serif" font-size="14.00">kc_h</text>
</g>
<!-- base_h&#45;&gt;kc_h -->
<g id="edge10" class="edge">
<title>base_h&#45;&gt;kc_h</title>
<path fill="none" stroke="black" d="M202.01,-278C219.02,-278 241.44,-278 260.17,-278"/>
<polygon fill="black" stroke="black" points="260.43,-281.5 270.43,-278 260.43,-274.5 260.43,-281.5"/>
</g>
<!-- tk_h -->
<g id="node15" class="node">
<title>tk_h</title>
<polygon fill="none" stroke="black" points="324.59,-350 270.59,-350 270.59,-314 324.59,-314 324.59,-350"/>
<text text-anchor="middle" x="297.59" y="-328.3" font-family="Times,serif" font-size="14.00">tk_h</text>
</g>
<!-- base_h&#45;&gt;tk_h -->
<g id="edge11" class="edge">
<title>base_h&#45;&gt;tk_h</title>
<path fill="none" stroke="black" d="M202.01,-289.72C219.34,-297.47 242.27,-307.72 261.22,-316.19"/>
<polygon fill="black" stroke="black" points="259.87,-319.42 270.43,-320.31 262.73,-313.03 259.87,-319.42"/>
</g>
<!-- kv_h -->
<g id="node14" class="node">
<title>kv_h</title>
<polygon fill="none" stroke="black" points="414.59,-323 360.59,-323 360.59,-287 414.59,-287 414.59,-323"/>
<text text-anchor="middle" x="387.59" y="-301.3" font-family="Times,serif" font-size="14.00">kv_h</text>
</g>
<!-- bdb_h&#45;&gt;kv_h -->
<g id="edge12" class="edge">
<title>bdb_h&#45;&gt;kv_h</title>
<path fill="none" stroke="black" d="M318.56,-242.38C330.68,-253.54 346.32,-267.93 359.54,-280.1"/>
<polygon fill="black" stroke="black" points="357.27,-282.77 367,-286.97 362.02,-277.62 357.27,-282.77"/>
</g>
<!-- kc_h&#45;&gt;kv_h -->
<g id="edge13" class="edge">
<title>kc_h&#45;&gt;kv_h</title>
<path fill="none" stroke="black" d="M324.99,-286.1C333.07,-288.58 342.1,-291.35 350.69,-293.99"/>
<polygon fill="black" stroke="black" points="349.92,-297.41 360.51,-297 351.97,-290.72 349.92,-297.41"/>
</g>
<!-- kv_h&#45;&gt;bce_h -->
<g id="edge1" class="edge">
<title>kv_h&#45;&gt;bce_h</title>
<path fill="none" stroke="black" d="M394.71,-323.39C410.98,-372.29 455.4,-505.78 474.81,-564.1"/>
<polygon fill="black" stroke="black" points="471.54,-565.38 478.02,-573.76 478.18,-563.17 471.54,-565.38"/>
</g>
<!-- tk_h&#45;&gt;kv_h -->
<g id="edge14" class="edge">
<title>tk_h&#45;&gt;kv_h</title>
<path fill="none" stroke="black" d="M324.99,-323.9C333.07,-321.42 342.1,-318.65 350.69,-316.01"/>
<polygon fill="black" stroke="black" points="351.97,-319.28 360.51,-313 349.92,-312.59 351.97,-319.28"/>
</g>
<!-- bkidx_h&#45;&gt;main_cpp -->
<g id="edge20" class="edge">
<title>bkidx_h&#45;&gt;main_cpp</title>
<path fill="none" stroke="black" d="M659.05,-924.22C676.23,-920.46 696.83,-912.95 709.18,-898 742.77,-857.32 696.53,-822.44 729.18,-781 733.38,-775.67 738.83,-771.37 744.78,-767.92"/>
<polygon fill="black" stroke="black" points="746.37,-771.03 753.74,-763.43 743.23,-764.77 746.37,-771.03"/>
</g>
<!-- bkidx_h&#45;&gt;bkidx_cpp -->
<g id="edge49" class="edge">
<title>bkidx_h&#45;&gt;bkidx_cpp</title>
<path fill="none" stroke="black" d="M659.22,-932.95C681.51,-936.65 712.56,-941.8 739.04,-946.2"/>
<polygon fill="black" stroke="black" points="738.5,-949.66 748.93,-947.84 739.64,-942.75 738.5,-949.66"/>
</g>
<!-- datfarm_h -->
<g id="node17" class="node">
<title>datfarm_h</title>
<polygon fill="none" stroke="black" points="664.88,-1000 591.88,-1000 591.88,-964 664.88,-964 664.88,-1000"/>
<text text-anchor="middle" x="628.38" y="-978.3" font-family="Times,serif" font-size="14.00">datfarm_h</text>
</g>
<!-- datfarm_h&#45;&gt;bkidx_cpp -->
<g id="edge50" class="edge">
<title>datfarm_h&#45;&gt;bkidx_cpp</title>
<path fill="none" stroke="black" d="M665.09,-976.07C686.69,-972.49 714.65,-967.85 738.83,-963.84"/>
<polygon fill="black" stroke="black" points="739.64,-967.25 748.93,-962.16 738.5,-960.34 739.64,-967.25"/>
</g>
<!-- datfarm_h&#45;&gt;datfarm_cpp -->
<g id="edge53" class="edge">
<title>datfarm_h&#45;&gt;datfarm_cpp</title>
<path fill="none" stroke="black" d="M664.95,-974.92C679.61,-970.79 696.18,-964.47 709.18,-955 721.25,-946.2 717.47,-937.27 729.18,-928 733.77,-924.36 738.93,-921.12 744.27,-918.27"/>
<polygon fill="black" stroke="black" points="745.91,-921.36 753.35,-913.81 742.83,-915.08 745.91,-921.36"/>
</g>
<!-- fasthex_h -->
<g id="node18" class="node">
<title>fasthex_h</title>
<polygon fill="none" stroke="black" points="662.88,-1054 593.88,-1054 593.88,-1018 662.88,-1018 662.88,-1054"/>
<text text-anchor="middle" x="628.38" y="-1032.3" font-family="Times,serif" font-size="14.00">fasthex_h</text>
</g>
<!-- fasthex_h&#45;&gt;bkidx_cpp -->
<g id="edge51" class="edge">
<title>fasthex_h&#45;&gt;bkidx_cpp</title>
<path fill="none" stroke="black" d="M663.13,-1026.65C677.63,-1022.11 694.57,-1016.09 709.18,-1009 727.65,-1000.04 746.94,-987.67 762.27,-977.03"/>
<polygon fill="black" stroke="black" points="764.64,-979.64 770.79,-971.01 760.61,-973.92 764.64,-979.64"/>
</g>
<!-- log_h -->
<g id="node19" class="node">
<title>log_h</title>
<polygon fill="none" stroke="black" points="655.38,-886 601.38,-886 601.38,-850 655.38,-850 655.38,-886"/>
<text text-anchor="middle" x="628.38" y="-864.3" font-family="Times,serif" font-size="14.00">log_h</text>
</g>
<!-- log_h&#45;&gt;main_cpp -->
<g id="edge22" class="edge">
<title>log_h&#45;&gt;main_cpp</title>
<path fill="none" stroke="black" d="M655.51,-864.06C672.82,-860.18 694.9,-852.6 709.18,-838 727.95,-818.81 710.85,-800.62 729.18,-781 733.81,-776.04 739.5,-771.95 745.56,-768.59"/>
<polygon fill="black" stroke="black" points="747.16,-771.7 754.6,-764.17 744.08,-765.41 747.16,-771.7"/>
</g>
<!-- log_h&#45;&gt;log_cpp -->
<g id="edge59" class="edge">
<title>log_h&#45;&gt;log_cpp</title>
<path fill="none" stroke="black" d="M655.52,-864.91C673.29,-861.4 695.91,-853.92 709.18,-838 741.27,-799.49 697.98,-766.24 729.18,-727 734.22,-720.66 741.04,-715.78 748.33,-712.03"/>
<polygon fill="black" stroke="black" points="750,-715.12 757.73,-707.87 747.16,-708.72 750,-715.12"/>
</g>
</g>
</svg>
