<?xml version="1.0" encoding="UTF-8" standalone="no"?>
<!DOCTYPE svg PUBLIC "-//W3C//DTD SVG 1.1//EN"
 "http://www.w3.org/Graphics/SVG/1.1/DTD/svg11.dtd">
<!-- Generated by graphviz version 2.47.2 (20210527.0053)
 -->
<!-- Title: bce2 Pages: 1 -->
<svg width="825pt" height="1234pt"
 viewBox="0.00 0.00 824.87 1234.00" xmlns="http://www.w3.org/2000/svg" xmlns:xlink="http://www.w3.org/1999/xlink">
<g id="graph0" class="graph" transform="scale(1 1) rotate(0) translate(4 1230)">
<title>bce2</title>
<polygon fill="white" stroke="transparent" points="-4,4 -4,-1230 820.87,-1230 820.87,4 -4,4"/>
<g id="clust1" class="cluster">
<title>cluster_h_bk</title>
<polygon fill="none" stroke="black" points="442.59,-285 442.59,-391 639.34,-391 639.34,-285 442.59,-285"/>
</g>
<g id="clust2" class="cluster">
<title>cluster_h_cfg</title>
<polygon fill="none" stroke="black" points="552.34,-890 552.34,-996 656.34,-996 656.34,-890 552.34,-890"/>
</g>
<g id="clust3" class="cluster">
<title>cluster_h_crypt</title>
<polygon fill="none" stroke="black" points="560.84,-122 560.84,-228 647.84,-228 647.84,-122 560.84,-122"/>
</g>
<g id="clust4" class="cluster">
<title>cluster_h_kv</title>
<polygon fill="none" stroke="black" points="139.79,-421 139.79,-581 422.59,-581 422.59,-421 139.79,-421"/>
</g>
<g id="clust5" class="cluster">
<title>cluster_h_load</title>
<polygon fill="none" stroke="black" points="559.84,-722 559.84,-882 648.84,-882 648.84,-722 559.84,-722"/>
</g>
<g id="clust6" class="cluster">
<title>cluster_h_out</title>
<polygon fill="none" stroke="black" points="569.34,-576 569.34,-628 639.34,-628 639.34,-576 569.34,-576"/>
</g>
<g id="clust7" class="cluster">
<title>cluster_c_bk</title>
<polygon fill="none" stroke="black" points="693.43,-176 693.43,-498 796.52,-498 796.52,-176 693.43,-176"/>
</g>
<g id="clust8" class="cluster">
<title>cluster_c_cfg</title>
<polygon fill="none" stroke="black" points="694.73,-890 694.73,-942 795.22,-942 795.22,-890 694.73,-890"/>
</g>
<g id="clust9" class="cluster">
<title>cluster_c_crypt</title>
<polygon fill="none" stroke="black" points="682.38,-8 682.38,-168 807.57,-168 807.57,-8 682.38,-8"/>
</g>
<g id="clust10" class="cluster">
<title>cluster_c_kv</title>
<polygon fill="none" stroke="black" points="555.39,-1004 555.39,-1218 653.28,-1218 653.28,-1004 555.39,-1004"/>
</g>
<g id="clust11" class="cluster">
<title>cluster_c_load</title>
<polygon fill="none" stroke="black" points="681.08,-776 681.08,-882 808.87,-882 808.87,-776 681.08,-776"/>
</g>
<g id="clust12" class="cluster">
<title>cluster_c_out</title>
<polygon fill="none" stroke="black" points="690.83,-506 690.83,-666 799.12,-666 799.12,-506 690.83,-506"/>
</g>
<!-- bce_h -->
<g id="node1" class="node">
<title>bce_h</title>
<polygon fill="none" stroke="black" points="512.09,-674 458.09,-674 458.09,-638 512.09,-638 512.09,-674"/>
<text text-anchor="middle" x="485.09" y="-652.3" font-family="Times,serif" font-size="14.00">bce_h</text>
</g>
<!-- misc_h -->
<g id="node3" class="node">
<title>misc_h</title>
<polygon fill="none" stroke="black" points="632.34,-674 576.34,-674 576.34,-638 632.34,-638 632.34,-674"/>
<text text-anchor="middle" x="604.34" y="-652.3" font-family="Times,serif" font-size="14.00">misc_h</text>
</g>
<!-- bce_h&#45;&gt;misc_h -->
<g id="edge2" class="edge">
<title>bce_h&#45;&gt;misc_h</title>
<path fill="none" stroke="black" d="M512.11,-656C527.86,-656 548.23,-656 565.71,-656"/>
<polygon fill="black" stroke="black" points="566.16,-659.5 576.16,-656 566.16,-652.5 566.16,-659.5"/>
</g>
<!-- bk_cpp -->
<g id="node26" class="node">
<title>bk_cpp</title>
<ellipse fill="none" stroke="black" cx="744.98" cy="-364" rx="36.29" ry="18"/>
<text text-anchor="middle" x="744.98" y="-360.3" font-family="Times,serif" font-size="14.00">bk_cpp</text>
</g>
<!-- bce_h&#45;&gt;bk_cpp -->
<g id="edge30" class="edge">
<title>bce_h&#45;&gt;bk_cpp</title>
<path fill="none" stroke="black" d="M491.23,-637.77C499.68,-610.96 518.98,-560.97 552.34,-532 589.49,-499.73 623.59,-530.73 656.34,-494 687.67,-458.86 650.73,-426.99 681.08,-391 686.7,-384.34 694.25,-379.28 702.18,-375.45"/>
<polygon fill="black" stroke="black" points="703.7,-378.61 711.56,-371.5 700.99,-372.16 703.7,-378.61"/>
</g>
<!-- tx_cpp -->
<g id="node27" class="node">
<title>tx_cpp</title>
<ellipse fill="none" stroke="black" cx="744.98" cy="-310" rx="34.39" ry="18"/>
<text text-anchor="middle" x="744.98" y="-306.3" font-family="Times,serif" font-size="14.00">tx_cpp</text>
</g>
<!-- bce_h&#45;&gt;tx_cpp -->
<g id="edge33" class="edge">
<title>bce_h&#45;&gt;tx_cpp</title>
<path fill="none" stroke="black" d="M491.34,-637.96C502.69,-600.15 530.22,-514.39 552.34,-494 587.98,-461.13 623.99,-497.13 656.34,-461 693.82,-419.13 645.69,-380.66 681.08,-337 686.96,-329.75 695.16,-324.4 703.69,-320.48"/>
<polygon fill="black" stroke="black" points="705.01,-323.72 713,-316.75 702.41,-317.22 705.01,-323.72"/>
</g>
<!-- vout_cpp -->
<g id="node29" class="node">
<title>vout_cpp</title>
<ellipse fill="none" stroke="black" cx="744.98" cy="-418" rx="43.59" ry="18"/>
<text text-anchor="middle" x="744.98" y="-414.3" font-family="Times,serif" font-size="14.00">vout_cpp</text>
</g>
<!-- bce_h&#45;&gt;vout_cpp -->
<g id="edge38" class="edge">
<title>bce_h&#45;&gt;vout_cpp</title>
<path fill="none" stroke="black" d="M496.32,-637.91C507.77,-619.1 527.96,-589.96 552.34,-572 592.2,-542.62 622.93,-568.56 656.34,-532 683.45,-502.32 654.54,-475.19 681.08,-445 685.77,-439.66 691.7,-435.35 698.04,-431.87"/>
<polygon fill="black" stroke="black" points="700,-434.81 707.52,-427.34 696.98,-428.49 700,-434.81"/>
</g>
<!-- bdb_cpp -->
<g id="node35" class="node">
<title>bdb_cpp</title>
<ellipse fill="none" stroke="black" cx="604.34" cy="-1192" rx="40.89" ry="18"/>
<text text-anchor="middle" x="604.34" y="-1188.3" font-family="Times,serif" font-size="14.00">bdb_cpp</text>
</g>
<!-- bce_h&#45;&gt;bdb_cpp -->
<g id="edge49" class="edge">
<title>bce_h&#45;&gt;bdb_cpp</title>
<path fill="none" stroke="black" d="M486.27,-674.03C487.39,-754.8 495.43,-1083 552.34,-1165 555.15,-1169.06 558.77,-1172.55 562.78,-1175.55"/>
<polygon fill="black" stroke="black" points="561.12,-1178.64 571.44,-1181.03 564.86,-1172.72 561.12,-1178.64"/>
</g>
<!-- kv_cpp -->
<g id="node36" class="node">
<title>kv_cpp</title>
<ellipse fill="none" stroke="black" cx="604.34" cy="-1138" rx="36.29" ry="18"/>
<text text-anchor="middle" x="604.34" y="-1134.3" font-family="Times,serif" font-size="14.00">kv_cpp</text>
</g>
<!-- bce_h&#45;&gt;kv_cpp -->
<g id="edge48" class="edge">
<title>bce_h&#45;&gt;kv_cpp</title>
<path fill="none" stroke="black" d="M486.58,-674.11C488.95,-749.6 501.27,-1038.59 552.34,-1111 555.62,-1115.66 559.96,-1119.58 564.73,-1122.86"/>
<polygon fill="black" stroke="black" points="563.24,-1126.04 573.63,-1128.09 566.79,-1120.01 563.24,-1126.04"/>
</g>
<!-- kc_cpp -->
<g id="node37" class="node">
<title>kc_cpp</title>
<ellipse fill="none" stroke="black" cx="604.34" cy="-1084" rx="36.29" ry="18"/>
<text text-anchor="middle" x="604.34" y="-1080.3" font-family="Times,serif" font-size="14.00">kc_cpp</text>
</g>
<!-- bce_h&#45;&gt;kc_cpp -->
<g id="edge50" class="edge">
<title>bce_h&#45;&gt;kc_cpp</title>
<path fill="none" stroke="black" d="M486.99,-674.3C490.73,-744.27 507.1,-994.14 552.34,-1057 555.66,-1061.62 560.03,-1065.53 564.81,-1068.8"/>
<polygon fill="black" stroke="black" points="563.33,-1071.99 573.72,-1074.03 566.87,-1065.95 563.33,-1071.99"/>
</g>
<!-- tk_cpp -->
<g id="node38" class="node">
<title>tk_cpp</title>
<ellipse fill="none" stroke="black" cx="604.34" cy="-1030" rx="34.39" ry="18"/>
<text text-anchor="middle" x="604.34" y="-1026.3" font-family="Times,serif" font-size="14.00">tk_cpp</text>
</g>
<!-- bce_h&#45;&gt;tk_cpp -->
<g id="edge51" class="edge">
<title>bce_h&#45;&gt;tk_cpp</title>
<path fill="none" stroke="black" d="M487.62,-674.2C493.24,-737.37 514.37,-946.21 552.34,-1000 556.32,-1005.64 561.72,-1010.38 567.53,-1014.32"/>
<polygon fill="black" stroke="black" points="565.82,-1017.38 576.2,-1019.51 569.42,-1011.37 565.82,-1017.38"/>
</g>
<!-- common_h -->
<g id="node2" class="node">
<title>common_h</title>
<polygon fill="none" stroke="black" points="79,-390 0,-390 0,-354 79,-354 79,-390"/>
<text text-anchor="middle" x="39.5" y="-368.3" font-family="Times,serif" font-size="14.00">common_h</text>
</g>
<!-- uniptr_h -->
<g id="node4" class="node">
<title>uniptr_h</title>
<polygon fill="none" stroke="black" points="516.09,-536 454.09,-536 454.09,-500 516.09,-500 516.09,-536"/>
<text text-anchor="middle" x="485.09" y="-514.3" font-family="Times,serif" font-size="14.00">uniptr_h</text>
</g>
<!-- common_h&#45;&gt;uniptr_h -->
<g id="edge3" class="edge">
<title>common_h&#45;&gt;uniptr_h</title>
<path fill="none" stroke="black" d="M40.42,-390C41.34,-432.54 50.3,-539.09 115,-585 226.49,-664.12 297.44,-640 422.59,-585 441.44,-576.72 457.04,-559.49 467.82,-544.57"/>
<polygon fill="black" stroke="black" points="470.83,-546.37 473.59,-536.15 465.05,-542.42 470.83,-546.37"/>
</g>
<!-- addr_h -->
<g id="node5" class="node">
<title>addr_h</title>
<polygon fill="none" stroke="black" points="512.09,-383 458.09,-383 458.09,-347 512.09,-347 512.09,-383"/>
<text text-anchor="middle" x="485.09" y="-361.3" font-family="Times,serif" font-size="14.00">addr_h</text>
</g>
<!-- common_h&#45;&gt;addr_h -->
<g id="edge4" class="edge">
<title>common_h&#45;&gt;addr_h</title>
<path fill="none" stroke="black" d="M79.15,-369.59C90.68,-368.96 103.35,-368.36 115,-368 236.65,-364.24 380.95,-364.41 447.33,-364.75"/>
<polygon fill="black" stroke="black" points="447.66,-368.25 457.68,-364.8 447.7,-361.25 447.66,-368.25"/>
</g>
<!-- opcode_h -->
<g id="node7" class="node">
<title>opcode_h</title>
<polygon fill="none" stroke="black" points="519.59,-329 450.59,-329 450.59,-293 519.59,-293 519.59,-329"/>
<text text-anchor="middle" x="485.09" y="-307.3" font-family="Times,serif" font-size="14.00">opcode_h</text>
</g>
<!-- common_h&#45;&gt;opcode_h -->
<g id="edge7" class="edge">
<title>common_h&#45;&gt;opcode_h</title>
<path fill="none" stroke="black" d="M79.15,-366.2C90.68,-364.5 103.35,-362.65 115,-361 232.53,-344.36 371.3,-325.88 440.4,-316.75"/>
<polygon fill="black" stroke="black" points="441.03,-320.19 450.48,-315.42 440.11,-313.25 441.03,-320.19"/>
</g>
<!-- encode_h -->
<g id="node10" class="node">
<title>encode_h</title>
<polygon fill="none" stroke="black" points="638.34,-166 570.34,-166 570.34,-130 638.34,-130 638.34,-166"/>
<text text-anchor="middle" x="604.34" y="-144.3" font-family="Times,serif" font-size="14.00">encode_h</text>
</g>
<!-- common_h&#45;&gt;encode_h -->
<g id="edge8" class="edge">
<title>common_h&#45;&gt;encode_h</title>
<path fill="none" stroke="black" d="M45.86,-353.69C55.17,-325.11 77.06,-270.09 115,-240 180.87,-187.76 212.52,-187 296.59,-187 296.59,-187 296.59,-187 388.59,-187 448.93,-187 517.29,-171.91 560.35,-160.5"/>
<polygon fill="black" stroke="black" points="561.46,-163.83 570.2,-157.84 559.63,-157.07 561.46,-163.83"/>
</g>
<!-- uintxxx_h -->
<g id="node11" class="node">
<title>uintxxx_h</title>
<polygon fill="none" stroke="black" points="639.84,-220 568.84,-220 568.84,-184 639.84,-184 639.84,-220"/>
<text text-anchor="middle" x="604.34" y="-198.3" font-family="Times,serif" font-size="14.00">uintxxx_h</text>
</g>
<!-- common_h&#45;&gt;uintxxx_h -->
<g id="edge9" class="edge">
<title>common_h&#45;&gt;uintxxx_h</title>
<path fill="none" stroke="black" d="M58.56,-353.83C98.01,-316.15 196.43,-233 296.59,-233 296.59,-233 296.59,-233 388.59,-233 447.87,-233 515.43,-221.28 558.68,-212.26"/>
<polygon fill="black" stroke="black" points="559.54,-215.65 568.59,-210.14 558.08,-208.8 559.54,-215.65"/>
</g>
<!-- base_h -->
<g id="node12" class="node">
<title>base_h</title>
<polygon fill="none" stroke="black" points="201.79,-493 147.79,-493 147.79,-457 201.79,-457 201.79,-493"/>
<text text-anchor="middle" x="174.79" y="-471.3" font-family="Times,serif" font-size="14.00">base_h</text>
</g>
<!-- common_h&#45;&gt;base_h -->
<g id="edge10" class="edge">
<title>common_h&#45;&gt;base_h</title>
<path fill="none" stroke="black" d="M64.02,-390.18C85.68,-406.92 118,-431.88 141.96,-450.4"/>
<polygon fill="black" stroke="black" points="140,-453.31 150.06,-456.66 144.29,-447.77 140,-453.31"/>
</g>
<!-- bkidx_h -->
<g id="node17" class="node">
<title>bkidx_h</title>
<polygon fill="none" stroke="black" points="634.84,-766 573.84,-766 573.84,-730 634.84,-730 634.84,-766"/>
<text text-anchor="middle" x="604.34" y="-744.3" font-family="Times,serif" font-size="14.00">bkidx_h</text>
</g>
<!-- common_h&#45;&gt;bkidx_h -->
<g id="edge17" class="edge">
<title>common_h&#45;&gt;bkidx_h</title>
<path fill="none" stroke="black" d="M41.33,-390.22C44.25,-434.74 57.28,-550.71 115,-623 172.76,-695.34 204.02,-725 296.59,-725 296.59,-725 296.59,-725 388.59,-725 449.9,-725 520.5,-734.38 563.51,-741.16"/>
<polygon fill="black" stroke="black" points="563.14,-744.65 573.57,-742.78 564.25,-737.74 563.14,-744.65"/>
</g>
<!-- common_cpp -->
<g id="node21" class="node">
<title>common_cpp</title>
<ellipse fill="none" stroke="black" cx="174.79" cy="-395" rx="59.59" ry="18"/>
<text text-anchor="middle" x="174.79" y="-391.3" font-family="Times,serif" font-size="14.00">common_cpp</text>
</g>
<!-- common_h&#45;&gt;common_cpp -->
<g id="edge18" class="edge">
<title>common_h&#45;&gt;common_cpp</title>
<path fill="none" stroke="black" d="M79.05,-378.65C89.52,-380.46 101.12,-382.46 112.51,-384.42"/>
<polygon fill="black" stroke="black" points="111.98,-387.88 122.43,-386.14 113.17,-380.99 111.98,-387.88"/>
</g>
<!-- misc_cpp -->
<g id="node23" class="node">
<title>misc_cpp</title>
<ellipse fill="none" stroke="black" cx="744.98" cy="-748" rx="44.69" ry="18"/>
<text text-anchor="middle" x="744.98" y="-744.3" font-family="Times,serif" font-size="14.00">misc_cpp</text>
</g>
<!-- misc_h&#45;&gt;misc_cpp -->
<g id="edge21" class="edge">
<title>misc_h&#45;&gt;misc_cpp</title>
<path fill="none" stroke="black" d="M632.6,-670.55C640.68,-675.52 649.26,-681.49 656.34,-688 669.82,-700.41 666.67,-709.67 681.08,-721 686.8,-725.49 693.37,-729.38 700.07,-732.7"/>
<polygon fill="black" stroke="black" points="698.66,-735.9 709.21,-736.87 701.57,-729.53 698.66,-735.9"/>
</g>
<!-- main_cpp -->
<g id="node24" class="node">
<title>main_cpp</title>
<ellipse fill="none" stroke="black" cx="744.98" cy="-694" rx="46.29" ry="18"/>
<text text-anchor="middle" x="744.98" y="-690.3" font-family="Times,serif" font-size="14.00">main_cpp</text>
</g>
<!-- misc_h&#45;&gt;main_cpp -->
<g id="edge22" class="edge">
<title>misc_h&#45;&gt;main_cpp</title>
<path fill="none" stroke="black" d="M632.4,-663.42C650.7,-668.43 675.35,-675.19 696.83,-681.08"/>
<polygon fill="black" stroke="black" points="696.19,-684.53 706.76,-683.8 698.04,-677.78 696.19,-684.53"/>
</g>
<!-- vin_cpp -->
<g id="node28" class="node">
<title>vin_cpp</title>
<ellipse fill="none" stroke="black" cx="744.98" cy="-472" rx="38.99" ry="18"/>
<text text-anchor="middle" x="744.98" y="-468.3" font-family="Times,serif" font-size="14.00">vin_cpp</text>
</g>
<!-- misc_h&#45;&gt;vin_cpp -->
<g id="edge36" class="edge">
<title>misc_h&#45;&gt;vin_cpp</title>
<path fill="none" stroke="black" d="M632.39,-648.74C641.25,-645.09 650.34,-639.73 656.34,-632 692.37,-585.52 645.16,-548.57 681.08,-502 686.44,-495.05 693.82,-489.62 701.64,-485.42"/>
<polygon fill="black" stroke="black" points="703.39,-488.47 710.93,-481.03 700.4,-482.14 703.39,-488.47"/>
</g>
<!-- opts_cpp -->
<g id="node31" class="node">
<title>opts_cpp</title>
<ellipse fill="none" stroke="black" cx="744.98" cy="-916" rx="42.49" ry="18"/>
<text text-anchor="middle" x="744.98" y="-912.3" font-family="Times,serif" font-size="14.00">opts_cpp</text>
</g>
<!-- misc_h&#45;&gt;opts_cpp -->
<g id="edge41" class="edge">
<title>misc_h&#45;&gt;opts_cpp</title>
<path fill="none" stroke="black" d="M624.9,-674.24C635.95,-685.71 648.99,-701.44 656.34,-718 686.92,-787 636.25,-825.28 681.08,-886 685.93,-892.57 692.6,-897.76 699.78,-901.84"/>
<polygon fill="black" stroke="black" points="698.55,-905.14 709.07,-906.44 701.66,-898.87 698.55,-905.14"/>
</g>
<!-- bkidx_cpp -->
<g id="node39" class="node">
<title>bkidx_cpp</title>
<ellipse fill="none" stroke="black" cx="744.98" cy="-856" rx="48.19" ry="18"/>
<text text-anchor="middle" x="744.98" y="-852.3" font-family="Times,serif" font-size="14.00">bkidx_cpp</text>
</g>
<!-- misc_h&#45;&gt;bkidx_cpp -->
<g id="edge52" class="edge">
<title>misc_h&#45;&gt;bkidx_cpp</title>
<path fill="none" stroke="black" d="M624.21,-674.17C635.16,-685.74 648.33,-701.59 656.34,-718 678.5,-763.43 648.82,-790.09 681.08,-829 685.16,-833.92 690.31,-837.97 695.89,-841.29"/>
<polygon fill="black" stroke="black" points="694.43,-844.48 704.93,-845.93 697.63,-838.25 694.43,-844.48"/>
</g>
<!-- datfarm_cpp -->
<g id="node40" class="node">
<title>datfarm_cpp</title>
<ellipse fill="none" stroke="black" cx="744.98" cy="-802" rx="55.79" ry="18"/>
<text text-anchor="middle" x="744.98" y="-798.3" font-family="Times,serif" font-size="14.00">datfarm_cpp</text>
</g>
<!-- misc_h&#45;&gt;datfarm_cpp -->
<g id="edge56" class="edge">
<title>misc_h&#45;&gt;datfarm_cpp</title>
<path fill="none" stroke="black" d="M622.64,-674.23C633.27,-686.07 646.66,-702.19 656.34,-718 670.75,-741.56 661.51,-755.51 681.08,-775 684.97,-778.88 689.51,-782.24 694.34,-785.14"/>
<polygon fill="black" stroke="black" points="692.78,-788.27 703.26,-789.87 696.07,-782.09 692.78,-788.27"/>
</g>
<!-- log_cpp -->
<g id="node41" class="node">
<title>log_cpp</title>
<ellipse fill="none" stroke="black" cx="744.98" cy="-640" rx="38.99" ry="18"/>
<text text-anchor="middle" x="744.98" y="-636.3" font-family="Times,serif" font-size="14.00">log_cpp</text>
</g>
<!-- misc_h&#45;&gt;log_cpp -->
<g id="edge62" class="edge">
<title>misc_h&#45;&gt;log_cpp</title>
<path fill="none" stroke="black" d="M632.4,-652.88C650.76,-650.76 675.53,-647.9 697.07,-645.41"/>
<polygon fill="black" stroke="black" points="697.48,-648.89 707.02,-644.27 696.68,-641.93 697.48,-648.89"/>
</g>
<!-- out_cpp -->
<g id="node42" class="node">
<title>out_cpp</title>
<ellipse fill="none" stroke="black" cx="744.98" cy="-586" rx="38.99" ry="18"/>
<text text-anchor="middle" x="744.98" y="-582.3" font-family="Times,serif" font-size="14.00">out_cpp</text>
</g>
<!-- misc_h&#45;&gt;out_cpp -->
<g id="edge58" class="edge">
<title>misc_h&#45;&gt;out_cpp</title>
<path fill="none" stroke="black" d="M632.37,-644.59C640.28,-640.91 648.81,-636.58 656.34,-632 668.18,-624.78 669.12,-620.01 681.08,-613 688.52,-608.64 696.8,-604.58 704.84,-601"/>
<polygon fill="black" stroke="black" points="706.3,-604.19 714.11,-597.03 703.54,-597.75 706.3,-604.19"/>
</g>
<!-- show_cpp -->
<g id="node43" class="node">
<title>show_cpp</title>
<ellipse fill="none" stroke="black" cx="744.98" cy="-532" rx="46.29" ry="18"/>
<text text-anchor="middle" x="744.98" y="-528.3" font-family="Times,serif" font-size="14.00">show_cpp</text>
</g>
<!-- misc_h&#45;&gt;show_cpp -->
<g id="edge60" class="edge">
<title>misc_h&#45;&gt;show_cpp</title>
<path fill="none" stroke="black" d="M632.34,-648.03C640.98,-644.35 649.95,-639.15 656.34,-632 679.15,-606.45 657.83,-584.16 681.08,-559 685.69,-554.02 691.37,-549.91 697.42,-546.54"/>
<polygon fill="black" stroke="black" points="699.01,-549.66 706.45,-542.12 695.93,-543.37 699.01,-549.66"/>
</g>
<!-- bk_h -->
<g id="node6" class="node">
<title>bk_h</title>
<polygon fill="none" stroke="black" points="631.34,-383 577.34,-383 577.34,-347 631.34,-347 631.34,-383"/>
<text text-anchor="middle" x="604.34" y="-361.3" font-family="Times,serif" font-size="14.00">bk_h</text>
</g>
<!-- uniptr_h&#45;&gt;bk_h -->
<g id="edge6" class="edge">
<title>uniptr_h&#45;&gt;bk_h</title>
<path fill="none" stroke="black" d="M494.48,-499.85C505.67,-476.78 527.03,-436.44 552.34,-407 557.59,-400.88 563.81,-394.96 570.06,-389.58"/>
<polygon fill="black" stroke="black" points="572.44,-392.15 577.93,-383.09 567.99,-386.75 572.44,-392.15"/>
</g>
<!-- uniptr_cpp -->
<g id="node22" class="node">
<title>uniptr_cpp</title>
<ellipse fill="none" stroke="black" cx="604.34" cy="-434" rx="48.99" ry="18"/>
<text text-anchor="middle" x="604.34" y="-430.3" font-family="Times,serif" font-size="14.00">uniptr_cpp</text>
</g>
<!-- uniptr_h&#45;&gt;uniptr_cpp -->
<g id="edge19" class="edge">
<title>uniptr_h&#45;&gt;uniptr_cpp</title>
<path fill="none" stroke="black" d="M508.03,-499.83C520.72,-489.56 537.15,-476.68 552.34,-466 557.67,-462.25 563.42,-458.43 569.09,-454.8"/>
<polygon fill="black" stroke="black" points="571.24,-457.57 577.83,-449.27 567.51,-451.65 571.24,-457.57"/>
</g>
<!-- uniptr_h&#45;&gt;misc_cpp -->
<g id="edge20" class="edge">
<title>uniptr_h&#45;&gt;misc_cpp</title>
<path fill="none" stroke="black" d="M491.24,-536.05C502.5,-574.35 530.06,-661.96 552.34,-683 587.79,-716.49 610.15,-702.32 656.34,-718 670.81,-722.91 686.62,-728.31 700.78,-733.16"/>
<polygon fill="black" stroke="black" points="699.68,-736.49 710.28,-736.42 701.95,-729.87 699.68,-736.49"/>
</g>
<!-- addr_h&#45;&gt;bk_h -->
<g id="edge5" class="edge">
<title>addr_h&#45;&gt;bk_h</title>
<path fill="none" stroke="black" d="M512.11,-365C528.24,-365 549.2,-365 566.96,-365"/>
<polygon fill="black" stroke="black" points="566.98,-368.5 576.98,-365 566.98,-361.5 566.98,-368.5"/>
</g>
<!-- addr_cpp -->
<g id="node25" class="node">
<title>addr_cpp</title>
<ellipse fill="none" stroke="black" cx="744.98" cy="-202" rx="43.59" ry="18"/>
<text text-anchor="middle" x="744.98" y="-198.3" font-family="Times,serif" font-size="14.00">addr_cpp</text>
</g>
<!-- addr_h&#45;&gt;addr_cpp -->
<g id="edge27" class="edge">
<title>addr_h&#45;&gt;addr_cpp</title>
<path fill="none" stroke="black" d="M512.37,-353.41C554.4,-334.49 634.27,-296.91 656.34,-275 672.81,-258.64 663.96,-244.68 681.08,-229 686.5,-224.03 692.98,-219.89 699.68,-216.47"/>
<polygon fill="black" stroke="black" points="701.27,-219.59 708.89,-212.23 698.34,-213.23 701.27,-219.59"/>
</g>
<!-- bk_h&#45;&gt;main_cpp -->
<g id="edge25" class="edge">
<title>bk_h&#45;&gt;main_cpp</title>
<path fill="none" stroke="black" d="M631.47,-380.3C640.91,-387.21 650.64,-396.26 656.34,-407 683.85,-458.85 645.55,-623.27 681.08,-670 684.66,-674.71 689.28,-678.49 694.4,-681.54"/>
<polygon fill="black" stroke="black" points="692.85,-684.68 703.37,-685.99 695.96,-678.41 692.85,-684.68"/>
</g>
<!-- bk_h&#45;&gt;bk_cpp -->
<g id="edge32" class="edge">
<title>bk_h&#45;&gt;bk_cpp</title>
<path fill="none" stroke="black" d="M631.41,-364.81C650.17,-364.68 675.96,-364.49 698.12,-364.33"/>
<polygon fill="black" stroke="black" points="698.36,-367.83 708.34,-364.26 698.31,-360.83 698.36,-367.83"/>
</g>
<!-- bk_h&#45;&gt;tx_cpp -->
<g id="edge35" class="edge">
<title>bk_h&#45;&gt;tx_cpp</title>
<path fill="none" stroke="black" d="M631.41,-354.65C652.92,-346.12 683.68,-333.92 707.61,-324.43"/>
<polygon fill="black" stroke="black" points="709.07,-327.61 717.07,-320.67 706.48,-321.11 709.07,-327.61"/>
</g>
<!-- bk_h&#45;&gt;vin_cpp -->
<g id="edge37" class="edge">
<title>bk_h&#45;&gt;vin_cpp</title>
<path fill="none" stroke="black" d="M630.29,-383.05C639.05,-390 648.61,-398.36 656.34,-407 669.77,-422.02 665.66,-432.02 681.08,-445 687.42,-450.33 694.96,-454.76 702.59,-458.38"/>
<polygon fill="black" stroke="black" points="701.29,-461.64 711.86,-462.41 704.08,-455.21 701.29,-461.64"/>
</g>
<!-- bk_h&#45;&gt;vout_cpp -->
<g id="edge39" class="edge">
<title>bk_h&#45;&gt;vout_cpp</title>
<path fill="none" stroke="black" d="M631.41,-374.97C651.52,-382.66 679.72,-393.43 702.86,-402.28"/>
<polygon fill="black" stroke="black" points="701.83,-405.64 712.43,-405.94 704.33,-399.1 701.83,-405.64"/>
</g>
<!-- wit_cpp -->
<g id="node30" class="node">
<title>wit_cpp</title>
<ellipse fill="none" stroke="black" cx="744.98" cy="-256" rx="38.99" ry="18"/>
<text text-anchor="middle" x="744.98" y="-252.3" font-family="Times,serif" font-size="14.00">wit_cpp</text>
</g>
<!-- bk_h&#45;&gt;wit_cpp -->
<g id="edge40" class="edge">
<title>bk_h&#45;&gt;wit_cpp</title>
<path fill="none" stroke="black" d="M631.52,-346.8C640,-340.19 649.08,-332.3 656.34,-324 670.34,-307.98 665.03,-296.98 681.08,-283 687.32,-277.56 694.83,-273.08 702.44,-269.45"/>
<polygon fill="black" stroke="black" points="703.93,-272.61 711.71,-265.42 701.14,-266.19 703.93,-272.61"/>
</g>
<!-- bk_h&#45;&gt;out_cpp -->
<g id="edge59" class="edge">
<title>bk_h&#45;&gt;out_cpp</title>
<path fill="none" stroke="black" d="M631.37,-380.7C640.68,-387.62 650.33,-396.56 656.34,-407 690.44,-466.34 638.94,-505.07 681.08,-559 686.07,-565.39 692.87,-570.29 700.15,-574.04"/>
<polygon fill="black" stroke="black" points="698.98,-577.35 709.54,-578.2 701.82,-570.95 698.98,-577.35"/>
</g>
<!-- bk_h&#45;&gt;show_cpp -->
<g id="edge61" class="edge">
<title>bk_h&#45;&gt;show_cpp</title>
<path fill="none" stroke="black" d="M631.4,-381.4C640.48,-388.3 649.98,-397.04 656.34,-407 679.82,-443.77 653.3,-468.36 681.08,-502 685.85,-507.77 691.98,-512.51 698.55,-516.37"/>
<polygon fill="black" stroke="black" points="697.19,-519.61 707.68,-521.11 700.42,-513.39 697.19,-519.61"/>
</g>
<!-- opcode_h&#45;&gt;addr_cpp -->
<g id="edge28" class="edge">
<title>opcode_h&#45;&gt;addr_cpp</title>
<path fill="none" stroke="black" d="M519.8,-296.75C567.39,-276.64 654.07,-240 704.57,-218.66"/>
<polygon fill="black" stroke="black" points="706.01,-221.85 713.86,-214.73 703.29,-215.4 706.01,-221.85"/>
</g>
<!-- config_file_h -->
<g id="node8" class="node">
<title>config_file_h</title>
<polygon fill="none" stroke="black" points="648.34,-988 560.34,-988 560.34,-952 648.34,-952 648.34,-988"/>
<text text-anchor="middle" x="604.34" y="-966.3" font-family="Times,serif" font-size="14.00">config_file_h</text>
</g>
<!-- config_file_h&#45;&gt;opts_cpp -->
<g id="edge43" class="edge">
<title>config_file_h&#45;&gt;opts_cpp</title>
<path fill="none" stroke="black" d="M648.44,-953.21C665.98,-946.38 686.15,-938.52 703.42,-931.79"/>
<polygon fill="black" stroke="black" points="705.17,-934.87 713.22,-927.98 702.63,-928.35 705.17,-934.87"/>
</g>
<!-- opts_h -->
<g id="node9" class="node">
<title>opts_h</title>
<polygon fill="none" stroke="black" points="631.34,-934 577.34,-934 577.34,-898 631.34,-898 631.34,-934"/>
<text text-anchor="middle" x="604.34" y="-912.3" font-family="Times,serif" font-size="14.00">opts_h</text>
</g>
<!-- opts_h&#45;&gt;main_cpp -->
<g id="edge23" class="edge">
<title>opts_h&#45;&gt;main_cpp</title>
<path fill="none" stroke="black" d="M631.6,-906.19C640.82,-901.46 650.36,-894.85 656.34,-886 697.84,-824.55 635.79,-779.71 681.08,-721 685.08,-715.81 690.28,-711.61 695.96,-708.2"/>
<polygon fill="black" stroke="black" points="697.89,-711.15 705.21,-703.48 694.71,-704.91 697.89,-711.15"/>
</g>
<!-- opts_h&#45;&gt;opts_cpp -->
<g id="edge42" class="edge">
<title>opts_h&#45;&gt;opts_cpp</title>
<path fill="none" stroke="black" d="M631.41,-916C648.52,-916 671.49,-916 692.21,-916"/>
<polygon fill="black" stroke="black" points="692.48,-919.5 702.48,-916 692.48,-912.5 692.48,-919.5"/>
</g>
<!-- base58_cpp -->
<g id="node32" class="node">
<title>base58_cpp</title>
<ellipse fill="none" stroke="black" cx="744.98" cy="-88" rx="51.99" ry="18"/>
<text text-anchor="middle" x="744.98" y="-84.3" font-family="Times,serif" font-size="14.00">base58_cpp</text>
</g>
<!-- encode_h&#45;&gt;base58_cpp -->
<g id="edge44" class="edge">
<title>encode_h&#45;&gt;base58_cpp</title>
<path fill="none" stroke="black" d="M638.5,-133.5C651.74,-127.73 667.13,-121.04 681.08,-115 687.9,-112.05 695.15,-108.93 702.2,-105.9"/>
<polygon fill="black" stroke="black" points="703.83,-109 711.64,-101.84 701.07,-102.57 703.83,-109"/>
</g>
<!-- bech32_cpp -->
<g id="node33" class="node">
<title>bech32_cpp</title>
<ellipse fill="none" stroke="black" cx="744.98" cy="-34" rx="53.09" ry="18"/>
<text text-anchor="middle" x="744.98" y="-30.3" font-family="Times,serif" font-size="14.00">bech32_cpp</text>
</g>
<!-- encode_h&#45;&gt;bech32_cpp -->
<g id="edge45" class="edge">
<title>encode_h&#45;&gt;bech32_cpp</title>
<path fill="none" stroke="black" d="M617.37,-129.86C630.92,-110.61 654.54,-80.35 681.08,-61 686.18,-57.28 691.88,-53.94 697.7,-50.98"/>
<polygon fill="black" stroke="black" points="699.34,-54.08 706.89,-46.65 696.35,-47.75 699.34,-54.08"/>
</g>
<!-- uintxxx_cpp -->
<g id="node34" class="node">
<title>uintxxx_cpp</title>
<ellipse fill="none" stroke="black" cx="744.98" cy="-142" rx="54.69" ry="18"/>
<text text-anchor="middle" x="744.98" y="-138.3" font-family="Times,serif" font-size="14.00">uintxxx_cpp</text>
</g>
<!-- encode_h&#45;&gt;uintxxx_cpp -->
<g id="edge46" class="edge">
<title>encode_h&#45;&gt;uintxxx_cpp</title>
<path fill="none" stroke="black" d="M638.54,-146.56C651.24,-146.01 666.17,-145.37 680.74,-144.74"/>
<polygon fill="black" stroke="black" points="680.9,-148.23 690.74,-144.3 680.6,-141.24 680.9,-148.23"/>
</g>
<!-- uintxxx_h&#45;&gt;addr_cpp -->
<g id="edge29" class="edge">
<title>uintxxx_h&#45;&gt;addr_cpp</title>
<path fill="none" stroke="black" d="M639.96,-202C655.37,-202 673.86,-202 690.95,-202"/>
<polygon fill="black" stroke="black" points="691.37,-205.5 701.37,-202 691.37,-198.5 691.37,-205.5"/>
</g>
<!-- uintxxx_h&#45;&gt;bk_cpp -->
<g id="edge31" class="edge">
<title>uintxxx_h&#45;&gt;bk_cpp</title>
<path fill="none" stroke="black" d="M618.13,-220.02C628.99,-235.72 644.63,-259.3 656.34,-281 669.25,-304.95 661.74,-317.86 681.08,-337 687.27,-343.13 695.08,-347.96 703.06,-351.74"/>
<polygon fill="black" stroke="black" points="701.86,-355.03 712.43,-355.7 704.58,-348.58 701.86,-355.03"/>
</g>
<!-- uintxxx_h&#45;&gt;tx_cpp -->
<g id="edge34" class="edge">
<title>uintxxx_h&#45;&gt;tx_cpp</title>
<path fill="none" stroke="black" d="M618.67,-220.16C632.58,-238.08 655.87,-265.3 681.08,-283 688.64,-288.31 697.41,-292.88 705.96,-296.68"/>
<polygon fill="black" stroke="black" points="704.86,-300.01 715.43,-300.63 707.55,-293.55 704.86,-300.01"/>
</g>
<!-- uintxxx_h&#45;&gt;uintxxx_cpp -->
<g id="edge47" class="edge">
<title>uintxxx_h&#45;&gt;uintxxx_cpp</title>
<path fill="none" stroke="black" d="M639.96,-187.01C658.71,-178.9 682.02,-168.81 701.82,-160.25"/>
<polygon fill="black" stroke="black" points="703.43,-163.36 711.22,-156.18 700.65,-156.94 703.43,-163.36"/>
</g>
<!-- bdb_h -->
<g id="node13" class="node">
<title>bdb_h</title>
<polygon fill="none" stroke="black" points="324.59,-465 270.59,-465 270.59,-429 324.59,-429 324.59,-465"/>
<text text-anchor="middle" x="297.59" y="-443.3" font-family="Times,serif" font-size="14.00">bdb_h</text>
</g>
<!-- base_h&#45;&gt;bdb_h -->
<g id="edge11" class="edge">
<title>base_h&#45;&gt;bdb_h</title>
<path fill="none" stroke="black" d="M202.01,-468.92C219.1,-464.96 241.64,-459.74 260.44,-455.38"/>
<polygon fill="black" stroke="black" points="261.48,-458.73 270.43,-453.06 259.9,-451.91 261.48,-458.73"/>
</g>
<!-- kc_h -->
<g id="node14" class="node">
<title>kc_h</title>
<polygon fill="none" stroke="black" points="324.59,-519 270.59,-519 270.59,-483 324.59,-483 324.59,-519"/>
<text text-anchor="middle" x="297.59" y="-497.3" font-family="Times,serif" font-size="14.00">kc_h</text>
</g>
<!-- base_h&#45;&gt;kc_h -->
<g id="edge12" class="edge">
<title>base_h&#45;&gt;kc_h</title>
<path fill="none" stroke="black" d="M202.01,-480.64C219.1,-484.32 241.64,-489.17 260.44,-493.22"/>
<polygon fill="black" stroke="black" points="259.92,-496.69 270.43,-495.37 261.39,-489.84 259.92,-496.69"/>
</g>
<!-- tk_h -->
<g id="node16" class="node">
<title>tk_h</title>
<polygon fill="none" stroke="black" points="324.59,-573 270.59,-573 270.59,-537 324.59,-537 324.59,-573"/>
<text text-anchor="middle" x="297.59" y="-551.3" font-family="Times,serif" font-size="14.00">tk_h</text>
</g>
<!-- base_h&#45;&gt;tk_h -->
<g id="edge13" class="edge">
<title>base_h&#45;&gt;tk_h</title>
<path fill="none" stroke="black" d="M202.01,-492.36C219.58,-504 242.9,-519.44 261.99,-532.09"/>
<polygon fill="black" stroke="black" points="260.16,-535.07 270.43,-537.68 264.03,-529.24 260.16,-535.07"/>
</g>
<!-- kv_h -->
<g id="node15" class="node">
<title>kv_h</title>
<polygon fill="none" stroke="black" points="414.59,-546 360.59,-546 360.59,-510 414.59,-510 414.59,-546"/>
<text text-anchor="middle" x="387.59" y="-524.3" font-family="Times,serif" font-size="14.00">kv_h</text>
</g>
<!-- bdb_h&#45;&gt;kv_h -->
<g id="edge14" class="edge">
<title>bdb_h&#45;&gt;kv_h</title>
<path fill="none" stroke="black" d="M318.56,-465.38C330.68,-476.54 346.32,-490.93 359.54,-503.1"/>
<polygon fill="black" stroke="black" points="357.27,-505.77 367,-509.97 362.02,-500.62 357.27,-505.77"/>
</g>
<!-- kc_h&#45;&gt;kv_h -->
<g id="edge15" class="edge">
<title>kc_h&#45;&gt;kv_h</title>
<path fill="none" stroke="black" d="M324.99,-509.1C333.07,-511.58 342.1,-514.35 350.69,-516.99"/>
<polygon fill="black" stroke="black" points="349.92,-520.41 360.51,-520 351.97,-513.72 349.92,-520.41"/>
</g>
<!-- kv_h&#45;&gt;bce_h -->
<g id="edge1" class="edge">
<title>kv_h&#45;&gt;bce_h</title>
<path fill="none" stroke="black" d="M402.07,-546.07C418.26,-567.77 445.56,-604.35 464.18,-629.31"/>
<polygon fill="black" stroke="black" points="461.58,-631.69 470.37,-637.61 467.19,-627.5 461.58,-631.69"/>
</g>
<!-- tk_h&#45;&gt;kv_h -->
<g id="edge16" class="edge">
<title>tk_h&#45;&gt;kv_h</title>
<path fill="none" stroke="black" d="M324.99,-546.9C333.07,-544.42 342.1,-541.65 350.69,-539.01"/>
<polygon fill="black" stroke="black" points="351.97,-542.28 360.51,-536 349.92,-535.59 351.97,-542.28"/>
</g>
<!-- bkidx_h&#45;&gt;main_cpp -->
<g id="edge24" class="edge">
<title>bkidx_h&#45;&gt;main_cpp</title>
<path fill="none" stroke="black" d="M635.08,-736.42C654.53,-728.84 680.25,-718.82 701.8,-710.43"/>
<polygon fill="black" stroke="black" points="703.33,-713.59 711.38,-706.7 700.79,-707.07 703.33,-713.59"/>
</g>
<!-- bkidx_h&#45;&gt;bkidx_cpp -->
<g id="edge53" class="edge">
<title>bkidx_h&#45;&gt;bkidx_cpp</title>
<path fill="none" stroke="black" d="M634.84,-759.48C642.54,-763.51 650.35,-768.66 656.34,-775 674.46,-794.19 662.19,-810.56 681.08,-829 685.71,-833.52 691.22,-837.34 697.02,-840.55"/>
<polygon fill="black" stroke="black" points="695.78,-843.84 706.3,-845.11 698.87,-837.56 695.78,-843.84"/>
</g>
<!-- datfarm_h -->
<g id="node18" class="node">
<title>datfarm_h</title>
<polygon fill="none" stroke="black" points="640.84,-820 567.84,-820 567.84,-784 640.84,-784 640.84,-820"/>
<text text-anchor="middle" x="604.34" y="-798.3" font-family="Times,serif" font-size="14.00">datfarm_h</text>
</g>
<!-- datfarm_h&#45;&gt;bkidx_cpp -->
<g id="edge54" class="edge">
<title>datfarm_h&#45;&gt;bkidx_cpp</title>
<path fill="none" stroke="black" d="M641.04,-815.91C659.43,-823.07 681.99,-831.86 701.3,-839.38"/>
<polygon fill="black" stroke="black" points="700.18,-842.7 710.77,-843.07 702.73,-836.18 700.18,-842.7"/>
</g>
<!-- datfarm_h&#45;&gt;datfarm_cpp -->
<g id="edge57" class="edge">
<title>datfarm_h&#45;&gt;datfarm_cpp</title>
<path fill="none" stroke="black" d="M641.04,-802C652.56,-802 665.72,-802 678.69,-802"/>
<polygon fill="black" stroke="black" points="679.01,-805.5 689.01,-802 679.01,-798.5 679.01,-805.5"/>
</g>
<!-- fasthex_h -->
<g id="node19" class="node">
<title>fasthex_h</title>
<polygon fill="none" stroke="black" points="638.84,-874 569.84,-874 569.84,-838 638.84,-838 638.84,-874"/>
<text text-anchor="middle" x="604.34" y="-852.3" font-family="Times,serif" font-size="14.00">fasthex_h</text>
</g>
<!-- fasthex_h&#45;&gt;bkidx_cpp -->
<g id="edge55" class="edge">
<title>fasthex_h&#45;&gt;bkidx_cpp</title>
<path fill="none" stroke="black" d="M638.9,-856C653.3,-856 670.53,-856 686.84,-856"/>
<polygon fill="black" stroke="black" points="686.84,-859.5 696.84,-856 686.84,-852.5 686.84,-859.5"/>
</g>
<!-- log_h -->
<g id="node20" class="node">
<title>log_h</title>
<polygon fill="none" stroke="black" points="631.34,-620 577.34,-620 577.34,-584 631.34,-584 631.34,-620"/>
<text text-anchor="middle" x="604.34" y="-598.3" font-family="Times,serif" font-size="14.00">log_h</text>
</g>
<!-- log_h&#45;&gt;main_cpp -->
<g id="edge26" class="edge">
<title>log_h&#45;&gt;main_cpp</title>
<path fill="none" stroke="black" d="M631.48,-612.45C640.05,-616.72 649.2,-622.26 656.34,-629 671.8,-643.62 664.75,-656.35 681.08,-670 685.73,-673.89 691.09,-677.19 696.66,-679.98"/>
<polygon fill="black" stroke="black" points="695.61,-683.34 706.17,-684.2 698.45,-676.94 695.61,-683.34"/>
</g>
<!-- log_h&#45;&gt;log_cpp -->
<g id="edge63" class="edge">
<title>log_h&#45;&gt;log_cpp</title>
<path fill="none" stroke="black" d="M631.41,-609.15C651.09,-614.54 678.51,-622.06 701.36,-628.32"/>
<polygon fill="black" stroke="black" points="700.59,-631.74 711.16,-631.01 702.44,-624.99 700.59,-631.74"/>
</g>
</g>
</svg>
